<?xml version="1.0" encoding="utf-8"?>
<!-- Generator: Adobe Illustrator 23.0.3, SVG Export Plug-In . SVG Version: 6.00 Build 0)  -->
<svg version="1.1" id="Layer_1" xmlns="http://www.w3.org/2000/svg" xmlns:xlink="http://www.w3.org/1999/xlink" x="0px" y="0px"
	 viewBox="0 0 360 360" style="enable-background:new 0 0 360 360;" xml:space="preserve">
<style type="text/css">
	.st0{fill:none;}
	.st1{fill:url(#SVGID_1_);}
	.st2{fill:url(#SVGID_2_);}
	.st3{fill:url(#SVGID_3_);}
	.st4{fill:url(#SVGID_4_);}
	.st5{fill:#261655;}
</style>
<rect class="st0" width="360" height="360"/>
<g id="_444539744">
	<g>
		
			<linearGradient id="SVGID_1_" gradientUnits="userSpaceOnUse" x1="33954.7773" y1="-35417.8086" x2="33954.7773" y2="-33858.5938" gradientTransform="matrix(2.830000e-02 0 0 -2.830000e-02 -796.1564 -785.1507)">
			<stop  offset="0" style="stop-color:#6E2E88"/>
			<stop  offset="1" style="stop-color:#E12055"/>
		</linearGradient>
		<path class="st1" d="M242.8,212c-5,5.9-10.8,11.1-17.2,15.6H122.1c-16.8-11.7-29.5-29-35.3-49.2l32.1-14.6l44.1-1L242.8,212z"/>
		
			<linearGradient id="SVGID_2_" gradientUnits="userSpaceOnUse" x1="34274.8008" y1="-34662.7422" x2="34274.8008" y2="-32692.6152" gradientTransform="matrix(2.830000e-02 0 0 -2.830000e-02 -796.1564 -785.1507)">
			<stop  offset="0" style="stop-color:#E32855"/>
			<stop  offset="1" style="stop-color:#EB814C"/>
		</linearGradient>
		<path class="st2" d="M264,144.7c0.3,2.8,0.4,5.6,0.4,8.4c0,24.4-9.6,46.5-25.3,62.8c-26.2-3.1-48-16.3-62.1-31.1
			c-18.8-19.8-47.2-23.7-89.2-3.1c-3-9-4.6-18.7-4.6-28.7c0-11.8,2.2-23,6.3-33.3l61.5,2.5L264,144.7z"/>
		
			<linearGradient id="SVGID_3_" gradientUnits="userSpaceOnUse" x1="34373.7188" y1="-33557.5039" x2="34241.9023" y2="-31240.0293" gradientTransform="matrix(2.830000e-02 0 0 -2.830000e-02 -796.1564 -785.1507)">
			<stop  offset="0" style="stop-color:#EC854B"/>
			<stop  offset="1" style="stop-color:#F8C553"/>
		</linearGradient>
		<path class="st3" d="M230.1,82.2c20.9,16.6,34.3,42.2,34.3,71c0,11.4-2.1,22.2-5.9,32.2c-23-3.2-44.3-11.5-61.8-27.1
			c-11.8-10.5-23.8-21.7-47.4-29.3c-23.6-7.6-45.6-4.6-63.2,1.4c5.6-21.7,19-40.2,37.1-52.4L230.1,82.2z"/>
		
			<linearGradient id="SVGID_4_" gradientUnits="userSpaceOnUse" x1="34671.1094" y1="-30187.0234" x2="34740.2852" y2="-32041.6855" gradientTransform="matrix(2.830000e-02 0 0 -2.830000e-02 -796.1564 -785.1507)">
			<stop  offset="0" style="stop-color:#FFF081"/>
			<stop  offset="1" style="stop-color:#FBD058"/>
		</linearGradient>
		<path class="st4" d="M173.8,62.6c38.6,0,71.5,24.1,84.6,58.1C188.9,152.2,182,73.2,114.2,85C130.1,71,151,62.6,173.8,62.6z"/>
		<g>
			<g>
				<path class="st5" d="M227.6,154.2c-20.4-6.9-14.4-42.7-5.9-57.2c3-5.1,5.6-8.2,5.6-8.2l3.1,3.1c0,0-2.6,7.8-3.4,15.9
					c-0.8,8.1-0.5,9.6-0.5,9.6s-0.5-1.5-0.9-4.3c-0.3,10.3,1.8,16.2,1.8,16.2s-1.9-2.7-3.1-5.6c1.1,6,4,9.9,4,9.9s-3.3-3.5-5.6-6.7
					c2.3,7.5,5.6,12,5.6,12s-4.4-4.2-7.1-7c3.4,8.5,8,12.3,8,12.3s-4.3-2-7.5-6c3.2,8.2,8,12.3,8,12.3s-5.4-2.5-8.5-6.2
					C222.4,147.2,224.3,150.9,227.6,154.2z"/>
				<path class="st5" d="M227.7,91.1c17.3,0.9,53.2,32.6,35.9,51.1c0,0,0.9-7.2-0.6-14.6c-0.2,7.9-3.2,13-3.2,13s0.6-9.4-1.1-17.7
					c0,7.5-2.6,14-2.6,14s0.7-13.2-2.7-23c0.9,9-0.2,19.2-0.2,19.2s-1-10.3-4.8-19.4c0.9,6.8,0.7,12.5,0.7,12.5s-1.8-6.7-4.3-13.7
					c0.7,4.7,0.9,8.5,0.9,8.5s-4.3-9-7.7-15.8c1,3.8,1.9,7.2,1.9,7.2s-9-11.6-13.7-14.9C221.6,94.1,227.7,91.1,227.7,91.1z"/>
				<path class="st5" d="M226.3,88.1c-15.3-11.2-62.4-6.3-56.8,23.1c0,0,2.9-7.3,7.9-13.3c-3.8,7.6-3.8,14.5-3.8,14.5
					s4.2-9.2,9.9-15.9c-3.8,7.1-4.8,14.9-4.8,14.9s6.1-12.8,14-19.7c-5.3,7.8-9.6,18.1-9.6,18.1s6.1-8.9,13.9-14.8
					c-4.2,5.7-6.9,11.2-6.9,11.2s5-5,10.6-9.9c-3,4-5,7.4-5,7.4s8.2-5.5,14.6-9.5c-2.8,2.8-5.3,5.4-5.3,5.4s13.6-4.6,19.3-4.5
					C230.1,95.1,226.3,88.1,226.3,88.1z"/>
				<path class="st5" d="M195.8,149.7c0,0-9.2-10.6-5.8-29.9c3.4-19.3,32.5-28.2,32.5-28.2s15.8-6.5,4.3,2.9
					c-11.6,9.4-13.5,19.9-13.5,19.9s-0.3-5.9,0.6-11.8c0-0.1,0-0.2,0.1-0.3c-4.3,9.8-4,20-4,20s-1.4-4.6-1.5-9.6
					c-1.8,7.6-1.6,13.6-1.6,13.6s-1.4-4.3-2.1-9.4c-0.9,7.1-0.9,13.8-0.9,13.8s-1.4-4.4-2.3-9.2c-0.4,10.6,0.7,14.3,0.7,14.3
					s-2.8-5.8-4.2-11.3c0.5,10.7,3,16.3,3,16.3s-3.8-6.1-5.8-12.7c0.8,8,2.5,15.4,2.5,15.4s-3.4-5.8-5-11.5
					C193.2,136.8,194.4,143.6,195.8,149.7z"/>
				<path class="st5" d="M285.8,105.2c0,0-2.7-13.7-20-23c-17.3-9.2-42.2,8.3-42.2,8.3s-14.9,8.5-0.3,5.1c14.5-3.4,24,1.6,24,1.6
					s-4.5-3.8-9.6-6.8c-0.1,0-0.2-0.1-0.3-0.1c10.3,2.6,18.3,9.1,18.3,9.1s-2.8-4-6.7-7.1c7.1,3.2,11.7,7.1,11.7,7.1
					s-2.5-3.8-6.2-7.5c6.2,3.7,11.5,7.8,11.5,7.8s-2.6-3.8-5.9-7.5c8.6,6.2,10.9,9.4,10.9,9.4s-2.9-5.8-6.4-10.2
					c8.2,6.9,11,12.4,11,12.4s-2.5-6.7-6.5-12.3c5.9,5.5,10.6,11.4,10.6,11.4s-2.5-6.3-6-11C277.2,95.3,281.9,100.3,285.8,105.2z"/>
				<path class="st5" d="M278.3,68.4c0,0-9.6-8.8-27.6-6.1c-18,2.7-26.9,29.5-26.9,29.5s-6.4,14.5,2.6,4c9-10.5,18.8-12,18.8-12
					s-5.5-0.4-10.9,0.3c-0.1,0-0.2,0-0.3,0c9.2-3.7,18.7-3.2,18.7-3.2s-4.3-1.4-8.9-1.6c7.1-1.6,12.7-1.2,12.7-1.2s-3.9-1.4-8.7-2.2
					c6.6-0.7,12.9-0.5,12.9-0.5S256.4,74,252,73c9.8-0.1,13.3,1,13.3,1s-5.4-2.7-10.4-4.1c9.9,0.7,15,3.2,15,3.2s-5.6-3.7-11.6-5.6
					c7.4,0.9,14.2,2.6,14.2,2.6s-5.3-3.3-10.5-4.9C266.4,65.8,272.7,67,278.3,68.4z"/>
				<path class="st5" d="M184.8,73.3c14-18.1,38.4-1.6,45.6,11.1c2.5,4.4,3.7,7.9,3.7,7.9l-3.7,2.2c0,0-4.7-4.8-10.5-8
					c-5.8-3.2-7-3.3-7-3.3s1.4-0.1,3.7,0.3c-7.7-3.3-13-3-13-3s2.8-1,5.6-1.4c-5-0.7-9.2,1-9.2,1s4.1-2.2,7.5-3.5
					c-6.7,0-11.5,2-11.5,2s5.1-3.1,8.4-4.9c-7.9,0.9-12.8,4.2-12.8,4.2s3.4-3.6,7.8-5.6c-7.6,0.8-12.8,4.3-12.8,4.3s4.2-4.6,8.3-6.5
					C192.3,70.4,188.7,71.1,184.8,73.3z"/>
			</g>
			<path class="st5" d="M242.3,225.2c5.4-47.6,3.7-95.1-18.3-134.3c1.1,1.4-0.8-4.1,0.3-2.7c28.7,38.4,34.9,91.1,27.4,137H242.3z"/>
		</g>
		<path class="st5" d="M86.8,229h182.4c0,0-19.5-18.3-29.7-24c-10.1-5.7-26.1,4.5-32.2,6.1c-6.1,1.6-12-2.9-20.2-1.2
			c-8.2,1.6-13.9,9.8-16.5,10.6c-2.6,0.8-12.5-3.7-19.3-0.4c-6.8,3.3-17.4,4.1-20.7,3.7c-3.3-0.4-13.6,0.8-20.2,0.4
			C103.8,223.7,86.8,229,86.8,229z"/>
		<path class="st5" d="M129.5,95.8c0,0,0.2-2.4,3.1-2.6c-1.8-4.3-10.6-1.8-9.6-7.6c0.9,4.6,9.1-0.3,12.7,7.2c0.9-1.9,3-4.6,7.7-4.4
			c7.3,0.3,9.4,1.5,13.9,0.7c0,0-2,2-9.3,1.2c-6.3-0.7-7.5,3.2-9.2,4.5c0.8,0.4,1.5,0.7,2.2,0.8c2,0.3,3.3-0.1,3.3-0.1
			s-0.5,1.4-2,1.5c-1.5,0.1-2.7-0.2-3.7,0.1s-4.2,0.6-5.5-0.5c-1.3-1.1-2.3-1.2-2.6-1.2S129.5,95.8,129.5,95.8z"/>
		<path class="st5" d="M129.1,124.5c0,0-0.8,5.7-13.8,10.2c-2.9,1-5.1,2.3-6.8,3.6c0.6,0.1,1,0.4,1.2,0.6c1.2,0.1,2,1,2,1
			c-0.7-0.1-1.3,0-1.8,0.1c-1.3,3.3-4.7,4.9-7.1,5.4c-2.6,0.6-2.2,0.9-4,1.5c-1.8,0.6-2.9-0.4-2.9-0.4s2.7-0.8,4.8-2.6
			c0.6-0.5,1.1-1,1.6-1.5c-1.8-1.7-5.2-0.5-14.4,0.2c-9.6,0.8-13.8-6.5-13.8-6.5c3,2.5,7.9,5.4,17.2,2.3c6-2,9.6-0.9,11.6,1.2
			c-0.2-2,0.7-4.9,6.5-6.2C118.8,131.5,126.4,128.5,129.1,124.5z"/>
		<g>
			<path class="st5" d="M131.8,219.8c-10.7-4.3-9.6-17.2-9.6-17.2h3c0,0,0,0.7,0.1,1.8h9.8c0-1.4,0-2.4,0-2.4h2.4
				c0,0-0.1,0.9-0.1,2.3l8.9,12.4c0.6-0.1,1.1-0.2,2-0.1c2.2,0.1,2.5,1.9,1.8,2.7c-0.3,0.3-1.2,0.6-2,0.8l4.2,4.7l-1.4,1.2l-4.1-4.9
				l-4.1,4.9l-1.4-1.2l3.9-4.4c-1.9,0-8.1,0-10.3,0.1l3.7,4.2l-1.4,1.2l-4.1-4.9l-4.1,4.9l-1.4-1.2L131.8,219.8z M137.6,207.5
				c0.4,3.7,1.8,8.1,5.8,9.7c0.9-0.1,1.5-0.3,2-0.4L137.6,207.5z"/>
			<g>
				<path class="st5" d="M123.1,181.1c6.8,0.3,13.1,2.9,18,6.9c-1.5,0.3-4.1,1.2-4.9,5.4c-7.5,0.3-15.2,2.3-18.4,7.9
					c-7.7-0.8-12.9,1.6-17.8,7.2c-1.8-2.9-6.4-3.3-9.2-1c1.8-11.8,10.1-21.2,21-24.8C115.4,181.4,119.2,180.9,123.1,181.1z"/>
				<polygon class="st5" points="112.3,183.1 127.8,227.2 125.8,227.2 110.6,183.5 110,179.9 				"/>
				<path class="st0" d="M111.5,181.2c1.5,7.3,3.9,13.9,7.1,18.7"/>
			</g>
		</g>
		<path class="st5" d="M186.5,141.9c19.9-2.4,39.9,8,49.8,28c7,14.1,7.5,30.2,2.6,44.2l-16.4,9.5c10.6-15.3,12.6-36.7,4.4-53.4
			c-8.2-16.7-27.2-25.5-43.3-26.1L186.5,141.9z"/>
		<g>
			<path class="st5" d="M187.1,190.9c-15.6-5.2-11.1-32.6-4.5-43.7c2.3-3.9,4.3-6.2,4.3-6.2l2.4,2.3c0,0-2,6-2.6,12.1
				c-0.6,6.2-0.4,7.3-0.4,7.3s-0.4-1.2-0.7-3.3c-0.2,7.9,1.4,12.4,1.4,12.4s-1.4-2-2.4-4.3c0.9,4.6,3,7.5,3,7.5s-2.6-2.7-4.2-5.1
				c1.8,5.8,4.3,9.2,4.3,9.2s-3.4-3.2-5.4-5.3c2.6,6.5,6.1,9.4,6.1,9.4s-3.2-1.6-5.7-4.6c2.5,6.2,6.2,9.4,6.2,9.4s-4.1-1.9-6.5-4.7
				C183.2,185.5,184.6,188.4,187.1,190.9z"/>
			<path class="st5" d="M187.2,142.7c13.2,0.7,40.7,24.9,27.4,39.1c0,0,0.7-5.5-0.4-11.1c-0.2,6-2.5,9.9-2.5,9.9s0.5-7.2-0.8-13.6
				c0,5.8-2,10.7-2,10.7s0.5-10.1-2.1-17.6c0.7,6.9-0.1,14.7-0.1,14.7s-0.8-7.9-3.7-14.8c0.7,5.2,0.6,9.5,0.6,9.5s-1.4-5.2-3.3-10.5
				c0.5,3.6,0.7,6.5,0.7,6.5s-3.3-6.8-5.9-12.1c0.8,2.9,1.5,5.5,1.5,5.5s-6.9-8.8-10.4-11.4C182.6,145,187.2,142.7,187.2,142.7z"/>
			<path class="st5" d="M186.2,140.4c-11.7-8.5-47.7-4.8-43.4,17.6c0,0,2.2-5.6,6-10.1c-2.9,5.8-2.9,11.1-2.9,11.1s3.2-7.1,7.6-12.2
				c-2.9,5.4-3.7,11.4-3.7,11.4s4.6-9.8,10.7-15c-4.1,6-7.3,13.9-7.3,13.9s4.6-6.8,10.7-11.3c-3.2,4.4-5.3,8.6-5.3,8.6
				s3.8-3.9,8.1-7.5c-2.3,3-3.8,5.6-3.8,5.6s6.3-4.2,11.2-7.3c-2.1,2.1-4,4.1-4,4.1s10.4-3.5,14.8-3.4
				C189,145.8,186.2,140.4,186.2,140.4z"/>
			<path class="st5" d="M162.8,187.4c0,0-7-8.1-4.5-22.9c2.6-14.7,24.8-21.6,24.8-21.6s12.1-5,3.2,2.2c-8.9,7.2-10.3,15.2-10.3,15.2
				s-0.2-4.5,0.4-9c0-0.1,0-0.1,0.1-0.2c-3.3,7.5-3.1,15.3-3.1,15.3s-1-3.5-1.2-7.4c-1.4,5.8-1.2,10.4-1.2,10.4s-1.1-3.3-1.6-7.2
				c-0.7,5.4-0.7,10.5-0.7,10.5s-1.1-3.4-1.7-7c-0.3,8.1,0.5,10.9,0.5,10.9s-2.1-4.5-3.2-8.6c0.3,8.2,2.3,12.4,2.3,12.4
				s-2.9-4.6-4.4-9.7c0.6,6.1,1.9,11.8,1.9,11.8s-2.6-4.5-3.8-8.8C160.9,177.6,161.7,182.8,162.8,187.4z"/>
			<path class="st5" d="M231.6,153.4c0,0-2.1-10.5-15.3-17.5c-13.2-7-32.3,6.4-32.3,6.4s-11.3,6.5-0.2,3.9
				c11.1-2.6,18.3,1.2,18.3,1.2s-3.5-2.9-7.4-5.2c-0.1-0.1-0.1-0.1-0.2-0.1c7.9,2,13.9,6.9,13.9,6.9s-2.1-3-5.1-5.4
				c5.4,2.4,9,5.4,9,5.4s-1.9-2.9-4.7-5.7c4.7,2.8,8.8,6,8.8,6s-2-2.9-4.5-5.7c6.6,4.7,8.3,7.1,8.3,7.1s-2.2-4.4-4.9-7.8
				c6.2,5.3,8.4,9.5,8.4,9.5s-1.9-5.1-5-9.4c4.5,4.2,8.1,8.7,8.1,8.7s-1.9-4.8-4.5-8.4C225,145.9,228.6,149.8,231.6,153.4z"/>
			<path class="st5" d="M225.9,125.3c0,0-7.4-6.7-21.1-4.7c-13.7,2-20.6,22.5-20.6,22.5s-4.9,11.1,2,3.1c6.9-8.1,14.3-9.2,14.3-9.2
				s-4.2-0.3-8.3,0.2c-0.1,0-0.1,0-0.2,0c7-2.8,14.3-2.5,14.3-2.5s-3.3-1.1-6.8-1.2c5.4-1.2,9.7-0.9,9.7-0.9s-3-1.1-6.6-1.6
				c5-0.5,9.8-0.4,9.8-0.4s-3.1-1-6.5-1.8c7.5-0.1,10.1,0.8,10.1,0.8s-4.1-2.1-8-3.2c7.6,0.5,11.5,2.4,11.5,2.4s-4.3-2.8-8.9-4.3
				c5.6,0.7,10.8,2,10.8,2s-4.1-2.5-8-3.8C216.8,123.3,221.6,124.2,225.9,125.3z"/>
			<path class="st5" d="M154.4,129.1c10.7-13.8,29.3-1.2,34.9,8.5c2,3.4,2.8,6.1,2.8,6.1l-2.8,1.6c0,0-3.6-3.7-8-6.1
				c-4.4-2.4-5.3-2.5-5.3-2.5s1.1-0.1,2.8,0.3c-5.9-2.5-9.9-2.3-9.9-2.3s2.2-0.8,4.3-1c-3.8-0.5-7,0.7-7,0.7s3.1-1.7,5.7-2.6
				c-5.1,0-8.8,1.5-8.8,1.5s3.9-2.4,6.3-3.8c-6,0.7-9.8,3.2-9.8,3.2s2.6-2.7,5.9-4.3c-5.8,0.6-9.8,3.3-9.8,3.3s3.2-3.5,6.3-5
				C160.2,126.8,157.4,127.4,154.4,129.1z"/>
		</g>
	</g>
</g>
</svg>
