<?xml version="1.0" encoding="utf-8"?>
<!-- Generator: Adobe Illustrator 23.0.3, SVG Export Plug-In . SVG Version: 6.00 Build 0)  -->
<svg version="1.1" id="Layer_1" xmlns:xodm="http://www.corel.com/coreldraw/odm/2003"
	 xmlns="http://www.w3.org/2000/svg" xmlns:xlink="http://www.w3.org/1999/xlink" x="0px" y="0px" viewBox="0 0 3000 3000"
	 style="enable-background:new 0 0 3000 3000;" xml:space="preserve">
<style type="text/css">
	.st0{fill-rule:evenodd;clip-rule:evenodd;fill:#FBFBFB;}
	.st1{fill-rule:evenodd;clip-rule:evenodd;}
	.st2{fill-rule:evenodd;clip-rule:evenodd;fill:url(#SVGID_1_);}
	.st3{fill-rule:evenodd;clip-rule:evenodd;fill:url(#SVGID_2_);}
	.st4{fill-rule:evenodd;clip-rule:evenodd;fill:url(#SVGID_3_);}
	.st5{fill-rule:evenodd;clip-rule:evenodd;fill:url(#SVGID_4_);}
	.st6{fill-rule:evenodd;clip-rule:evenodd;fill:#FFFFFF;}
	.st7{fill-rule:evenodd;clip-rule:evenodd;fill:url(#SVGID_5_);}
	.st8{fill-rule:evenodd;clip-rule:evenodd;fill:url(#SVGID_6_);}
</style>
<g id="Layer_x5F_1">
	<g id="_2181695993424">
		<rect x="0" y="0" class="st0" width="3000" height="3000"/>
		<g>
			<circle class="st1" cx="1500" cy="1500" r="842"/>
			
				<linearGradient id="SVGID_1_" gradientUnits="userSpaceOnUse" x1="12100.1523" y1="-5596.2056" x2="12555.6055" y2="10800.5361" gradientTransform="matrix(2.840000e-02 0 0 -2.840000e-02 1161.4312 1158.4728)">
				<stop  offset="0" style="stop-color:#F7A084"/>
				<stop  offset="0.3412" style="stop-color:#FFFFFF"/>
				<stop  offset="1" style="stop-color:#99DCF9"/>
			</linearGradient>
			<path class="st2" d="M1500,718.4c431.7,0,781.6,349.9,781.6,781.6c0,200.7-75.7,383.7-200,522.1H918.4
				c-124.3-138.4-200-321.4-200-522.1C718.4,1068.3,1068.3,718.4,1500,718.4L1500,718.4z"/>
			
				<linearGradient id="SVGID_2_" gradientUnits="userSpaceOnUse" x1="1196.2205" y1="1895.1844" x2="1196.2205" y2="1892.7157" gradientTransform="matrix(181.6736 0 0 -77.6458 -215821.6719 148556.1719)">
				<stop  offset="0" style="stop-color:#29AAE3"/>
				<stop  offset="1" style="stop-color:#0091D5"/>
			</linearGradient>
			<path class="st3" d="M2267.9,1354c8.9,47.3,13.7,96.1,13.7,146c0,200.7-75.7,383.7-200,522.1H918.4
				c-124.3-138.4-200-321.4-200-522.1c0-49.9,4.7-98.7,13.7-146H2267.9L2267.9,1354z"/>
			
				<linearGradient id="SVGID_3_" gradientUnits="userSpaceOnUse" x1="11641.126" y1="-4755.5713" x2="11640.9512" y2="-15842.0391" gradientTransform="matrix(2.840000e-02 0 0 -2.840000e-02 1161.4312 1158.4728)">
				<stop  offset="0" style="stop-color:#EE3924"/>
				<stop  offset="0.3608" style="stop-color:#F26921"/>
				<stop  offset="1" style="stop-color:#FDCC03"/>
			</linearGradient>
			<path class="st4" d="M725.8,1354c-17.3,8.4,202.7,19.2,421.9,31.5c257.4,14.4-138.1,40.1-0.4,49.3c31.1,2.1,30.2,3.6,137.2,3.6
				c204.3,0,125.2,17,2.2,31.3c-165.3,19.2-388.1,38.7,96.9,53.7c57.1,1.8,93.3,14.4,25.8,24.4c-95.7,14.1,107.5,15.5,123.8,11.4
				c28-7,389.5,1.1,186.3-22.2c-45.3-5.2-89.3-9.6-121-13.2c-61-7.1-91.9-12.9-7.8-14.9c41.8-1,129.1,1.6,207.9,3.5
				c506.5,12.4-393.4-72.6-6.3-65.8c149.3,2.6,392.3,12.7,431.3-0.1c54-17.8-361.5-19.9-284.9-35.5c28.1-5.8,413.3,0,260.5-22.6
				c-35.2-5.2-93.9-9.1-54.9-14.8c38.1-5.6,199.8-19.5,57-19.5L725.8,1354L725.8,1354z"/>
			<path class="st1" d="M1747.9,1409.7H2051l227.4,19.5c2.1,23.3,3.2,46.9,3.2,70.8c0,34.6-2.3,68.6-6.6,102l-527.1-182.7
				L1747.9,1409.7L1747.9,1409.7z"/>
			<path class="st1" d="M1755.5,1412.3l569.7,196.8c4.7-36.2,7.1-72.6,7.1-109.1c0-18.9,0-46.7-1.3-65.5l-279.9-24L1755.5,1412.3
				L1755.5,1412.3z"/>
			<path class="st1" d="M2129.4,1478.3v130.5c-16.5,0.5-33.5,2.3-51.2,4.4v-134.9c-2-1.3-3.1-2.8-3.1-4.3c0-5.3,12.8-9.5,28.7-9.5
				c15.8,0,28.7,4.3,28.7,9.5C2132.5,1475.5,2131.4,1477,2129.4,1478.3L2129.4,1478.3z M1807.5,1390.8v109.7c0,8-26.3,9.8-38.2,5.5
				c-3.6-1.3-5.2-4.1-5.1-6.5l2.4-108.4c-1.7-1.1-2.7-0.8-2.7-3.6c0-2.8,6.6-6.9,20.2-6.9c8.8,0,17.8,0.1,22.2,2.3
				c2.4,1.2,3.9,2.7,3.9,4.3C1810.1,1388.5,1809.2,1389.7,1807.5,1390.8L1807.5,1390.8z M2126.1,1390.8v39.6H2083v-39.6
				c-1.7-1.1-2.6-2.3-2.6-3.6c0.1-8,36.4-9.4,45.5-3.7c1.8,1.1,2.8,2.3,2.8,3.7C2128.7,1388.5,2127.7,1389.7,2126.1,1390.8
				L2126.1,1390.8z M1954.7,1441.3v113.9c0,8.4-27.3,10.3-39.7,5.7c-3.7-1.3-4.8-3.8-4.8-6.3l1-113.7c-1.8-1.1-2.8-2.4-2.8-3.7
				c0-4.6,9.3-7.9,23.5-7.9c14.2,0,25.7,3.7,25.7,8.3C1957.5,1438.9,1956.5,1440.2,1954.7,1441.3L1954.7,1441.3z"/>
			<path class="st1" d="M1769.2,1506c-3.5-1.3-5.8-3.1-5.8-5.5v-109.7c-1.7-1.1-2.7-2.3-2.7-3.6c0-4.4,11.1-7.9,24.7-7.9
				c9.5,0,17.8,1.7,21.9,4.3c-8.4-1.5-22.6-1.7-31.5-0.4c-6.7,1-10.2,3.6-6.6,5.1L1769.2,1506L1769.2,1506z M1915,1560.9
				c-3.7-1.3-6.1-3.3-6.1-5.7v-113.9c-1.8-1.1-2.8-2.4-2.8-3.7c0-4.6,11.5-8.3,25.7-8.3c9.9,0,18.5,1.8,22.8,4.4
				c-8.7-1.6-23.5-1.8-32.8-0.4c-7,1-10.6,3.8-6.8,5.3V1560.9L1915,1560.9z M2083.5,1602.6c-4.2-1.6-7-3.8-7-6.6v-117.7
				c-2-1.3-3.2-2.8-3.2-4.3c0-5.3,13.3-9.5,29.6-9.5c11.4,0,21.3,2.1,26.3,5.1c-10.1-1.9-27.1-2.1-37.8-0.5c-8,1.2-12.2,4.4-7.9,6.1
				L2083.5,1602.6L2083.5,1602.6z M2081.9,1413.1v-22.3c-1.7-1.1-2.7-2.3-2.7-3.6c0-4.4,11.1-7.9,24.7-7.9c9.5,0,17.8,1.7,21.9,4.3
				c-8.4-1.5-22.6-1.7-31.5-0.4c-6.7,1-10.2,3.6-6.6,5.1v25.4L2081.9,1413.1L2081.9,1413.1z"/>
			
				<linearGradient id="SVGID_4_" gradientUnits="userSpaceOnUse" x1="11921.5576" y1="-5006.0103" x2="11921.8965" y2="6441.7612" gradientTransform="matrix(2.840000e-02 0 0 -2.840000e-02 1161.4312 1158.4728)">
				<stop  offset="0" style="stop-color:#FC261C"/>
				<stop  offset="1" style="stop-color:#FBD10D"/>
			</linearGradient>
			<path class="st5" d="M1500,915.4c234.6,0,424.8,190.2,424.8,424.8c0,4.6-0.1,9.2-0.2,13.8h-849.1c-0.1-4.6-0.2-9.2-0.2-13.8
				C1075.2,1105.6,1265.4,915.4,1500,915.4L1500,915.4z"/>
			<path class="st1" d="M711.2,1204.9c8.8,7,5.5-7.7,23.3,20.8c17.7,28.6,65.2,52.9,110.8,52c45.5-0.9,57.6-1.9,84.5,3.7
				c26.9,5.6,46-20.6,138.9,12c85.4,29.9,137.6,6.6,193.6,41.6c30.7,19.1,37.5,36.1,57.8,44.5c26.9,11.1,28.2,22.5,28.2,22.5
				c-97.6,37.7-91.1,20.8-208.4,38.7c-65.1,10-182.2,33.8-243.8,59.6c-24.6,10.3-96.8,39.4-89.6,52c13.5,23.5,36.9,35.3,128.7,38.2
				c57.6,1.8,226.8,6.8,265.8-12.3c47.4-23.2,101.9-4.3,150.1,7.6c30.7,7.6,56.3,9.7,87,8.8c25.4-0.7,52.5-4.3,90.6-7.8
				c156.8-14.3,243.7-37.5,345.3-0.7c101.6,36.8,188.9,6,264.4,6s113.8,5.1,173.1,5.5c-28,175.8-90.6,369.2-209.6,490.9
				l-1137.2,61.5C777.4,1995.7,658,1761.8,658,1500C658,1396.2,676.8,1296.7,711.2,1204.9L711.2,1204.9z"/>
			<path class="st1" d="M524.4,1602.1l194.1-112l90.1,135.9l1450.6,13l22.3-148.9l194.1,112l0,527.8c0,31.3-30.3,53.1-59.9,43.3
				c-541.5-179.5-1289.8-179.5-1831.3,0c-29.7,9.8-59.9-12-59.9-43.3L524.4,1602.1L524.4,1602.1z"/>
			<path class="st6" d="M679.2,1820.7c25.9-2.4,51.9-4.6,77.8-6.8c16.3-1.3,28.5-5.4,36.5-12.1c8-6.8,12.1-16.4,12.1-28.9
				c0-11.6-3.6-20.4-11.1-25.9c-7.6-5.7-18.6-8.3-33.4-7.6c-27.4,1.2-54.6,2.5-81.8,3.9C679.2,1769.1,679.2,1795,679.2,1820.7
				L679.2,1820.7z M2086.5,2026.5c0-61.2,0-122.3,0-183.5c0-61.2,0-122.3,0-183.5c32.3,0.1,64.7,0.2,97.2,0.4c0,22.6,0,45.3,0,67.8
				c0,22.6,0,45.2,0,67.8c44,3.1,88.2,6.4,132.4,10c0-24.2,0-48.3,0-72.5c0-24.1,0-48.3,0-72.5c32.3,0.2,64.7,0.4,97.2,0.5
				c0,71.9,0,143.9,0,215.8c0,71.9,0,143.9,0,215.8c-32.5-8.1-64.8-16-97.2-23.5c0-28.7,0-57.4,0-86.1s0-57.4,0-86.1
				c-44.2-5.6-88.4-10.9-132.4-15.8c0,26.9,0,53.7,0,80.6c0,26.9,0,53.7,0,80.6C2151.1,2036.8,2118.8,2031.4,2086.5,2026.5
				L2086.5,2026.5z M2030.2,1892.7c-3.3,21.3-9.5,39.8-18.3,55.5c-8.8,15.7-20.6,28.6-35.3,38.7c-29,20.1-66.6,27.5-112.9,23.5
				c-55.1-4.7-99.6-23.3-133.7-56.9c-16.9-16.7-29.8-35.3-38.2-56.5c-8.4-21.1-12.6-44.6-12.6-70.3c0-26.9,4.4-50.9,13-72.2
				c8.6-21.3,21.6-40,38.7-55.9c34.5-32.1,80.5-48.3,138.4-48.3c45.7,0,83.1,11.2,112.1,33.9c29,23.1,45.5,54.8,49.7,94.6
				c-30.3-1.3-60.6-2.6-91-3.7c-4.4-16.9-12.8-29.7-25.2-38.4c-12.4-8.7-28.7-13.1-48.8-13.5c-27-0.5-48.4,8.8-64.1,27.6
				c-15.7,18.8-23.6,44.6-23.6,77.6c0,32.8,7.4,58.5,22.3,77.6c14.9,19,35.8,29.4,62.8,31.3c21.6,1.5,39.1-2.1,52.1-10.7
				c13.2-8.7,21.4-22.4,24.5-40.7C1970.3,1887.9,2000.3,1890.2,2030.2,1892.7L2030.2,1892.7z M1428,1858.7
				c27.4-0.2,54.8-0.3,82.4-0.3c-7.1-18.9-14.2-37.7-21.2-56.5c-6.9-18.8-13.9-37.7-20.8-56.6c-6.8,18.9-13.7,37.8-20.3,56.7
				C1441.6,1820.9,1434.6,1839.8,1428,1858.7L1428,1858.7z M1418.9,1658.6c35.2,0,70.5,0,105.8,0c22.1,54.7,44.4,109.5,66.5,164.4
				c22.1,55,44.6,110.5,66.8,166.1c-34.7-1-69.4-1.7-103.9-2.3c-7.7-20.1-15.3-40.3-23-60.3c-42.2,0-84.2,0.1-126.2,0.7
				c-7.3,20.2-14.4,40.5-21.6,60.7c-33.4,1-66.8,2.1-100.3,3.6c22.6-56.3,45.3-112.2,67.9-167.7
				C1373.6,1768.5,1396.3,1713.4,1418.9,1658.6L1418.9,1658.6z M969.6,2018.7c0-59.9,0-119.8,0-179.7c0-59.9,0-119.8,0-179.7
				c95.5-0.3,191-0.5,286.8-0.6c0,22.8,0,45.5,0,68.3c-63.4,0.9-126.8,2-190.1,3.3c0,20.5,0,41,0,61.6c57.9-2.2,115.8-4,173.7-5.5
				c0,22.4,0,44.7,0,67.1c-57.9,2.2-115.8,4.9-173.7,8.1c0,24.9,0,49.8,0,74.6c65.4-4.9,130.8-8.9,196.3-12c0,22.8,0,45.5,0,68.2
				C1164.9,1998.6,1067.1,2007.3,969.6,2018.7L969.6,2018.7z M679.2,1988.8c24.3-4.5,48.6-8.7,73.1-12.7
				c23.2-3.8,39.3-9.4,48.6-17.3c9.1-7.9,13.7-19.5,13.7-34.9c0-13.9-4.4-23.9-13.2-29.9c-8.8-6-21.9-8.3-39.5-6.2
				c-27.6,3.3-55.2,6.8-82.7,10.4C679.2,1928.4,679.2,1958.6,679.2,1988.8L679.2,1988.8z M586.8,2092.7c0-71.9,0-143.9,0-215.8
				c0-71.9,0-143.9,0-215.8c61-0.4,122-0.7,183.2-1c44-0.2,76.3,7.5,97.2,23.1c21,15.2,31.4,38.8,31.4,70.8
				c0,19.9-4.6,36.5-13.9,50.1c-9.3,13.7-23.6,24.8-42.7,33.5c21.9,3.8,38.7,12.4,50.2,25.8c11.7,13.4,17.5,30.5,17.5,51.6
				c0,20.6-4.9,39.8-14.4,57.8c-9.9,18.1-23.4,33-40.7,45.2c-11.7,8.4-26.1,15.4-42.7,21.1c-16.8,5.8-42.6,12-77.4,19.3
				C685,2068.7,635.9,2080.4,586.8,2092.7L586.8,2092.7z"/>
			
				<linearGradient id="SVGID_5_" gradientUnits="userSpaceOnUse" x1="11921.1846" y1="-17608.7891" x2="11921.4453" y2="-27587.043" gradientTransform="matrix(2.840000e-02 0 0 -2.840000e-02 1161.4312 1158.4728)">
				<stop  offset="0" style="stop-color:#CCCCCC"/>
				<stop  offset="1" style="stop-color:#FFFFFF"/>
			</linearGradient>
			<path class="st7" d="M2098.3,2016.3c24.5,3.8,49,7.8,73.5,12c0-22.2,0-44.4,0-66.6c0-26.9,0-53.7,0-80.6V1868l13.1,1.5
				c44.2,4.9,88.4,10.2,132.6,15.8l10.3,1.3v10.4c0,28.7,0,57.4,0,86.1c0,25.6,0,51.1,0,76.7c24.6,5.7,49,11.7,73.5,17.8
				c0-66.9,0-133.8,0-200.6c0-68,0-136,0-204c-24.5-0.1-49-0.3-73.5-0.4c0,20.2,0,40.4,0,60.6c0,24.2,0,48.3,0,72.5v12.8l-12.8-1
				c-44.1-3.6-88.2-6.9-132.3-10l-11-0.8v-11c0-22.6,0-45.2,0-67.8c0-18.7,0-37.4,0-56.1c-24.5-0.1-49-0.2-73.5-0.3
				c0,57.2,0,114.4,0,171.6C2098.3,1900.8,2098.3,1958.6,2098.3,2016.3L2098.3,2016.3z M2016.2,1903.4c-22.2-1.8-44.4-3.5-66.6-5.1
				c-4.5,15.5-13.2,28.8-27.2,38c-17.4,11.5-39,14.1-59.4,12.7c-28.7-2-53.5-13-71.3-35.8c-18.9-24.1-24.8-54.8-24.8-84.9
				c0-30.4,6.3-61.3,26.3-85.2c18.8-22.5,44.3-32.3,73.4-31.8c19.5,0.3,39.1,4.3,55.3,15.6c13.2,9.2,22,21.9,27.2,36.6
				c22.8,0.9,45.6,1.8,68.4,2.8c-5.6-29-19.1-53.9-43.2-72.9c-30-23.6-67.4-31.4-104.8-31.4c-48.3,0-94.4,11.7-130.4,45.1
				c-15.7,14.6-27.8,31.8-35.8,51.7c-8.7,21.6-12.1,44.6-12.1,67.8c0,22.6,3.4,44.9,11.8,66c8,20,20.2,37.3,35.5,52.4
				c34.6,34.1,78.5,49.5,126.4,53.5c36.1,3.1,74.6-0.4,105.1-21.5c13.2-9.1,23.8-20.7,31.7-34.7
				C2008.4,1930.3,2013.1,1917,2016.2,1903.4L2016.2,1903.4z M1516.7,1670.4c-30,0-59.9,0-89.9,0c-21.7,52.6-43.4,105.2-64.9,157.8
				c-20.5,50.2-40.8,100.4-61.1,150.6c24.7-1,49.3-1.9,74-2.6c6.2-17.7,12.5-35.5,18.9-53.2l2.8-7.7l8.2-0.1
				c42.1-0.5,84.2-0.7,126.4-0.7l8.1,0l2.9,7.6c6.7,17.6,13.4,35.2,20.2,52.9c26,0.4,52,1,78,1.6c-20-49.8-40.1-99.5-60.1-149.3
				C1559.1,1775,1537.8,1722.7,1516.7,1670.4L1516.7,1670.4z M1416.9,1854.8c6.6-18.9,13.5-37.8,20.1-56.7
				c6.6-19,13.5-37.8,20.3-56.7l11-30.7l11.3,30.6c6.9,18.9,13.9,37.7,20.8,56.6c6.9,18.8,14.1,37.6,21.2,56.4l6,16l-17.1,0
				c-27.4,0-54.9,0.1-82.3,0.3l-16.8,0.1L1416.9,1854.8L1416.9,1854.8z M1228.1,1842.1c0-14.5,0-29,0-43.6
				c-53.8,1.4-107.6,3.1-161.4,5.1l-12.3,0.5v-12.3c0-20.5,0-41,0-61.6v-11.6l11.6-0.2c59.5-1.2,119-2.3,178.6-3.1
				c0-14.9,0-29.9,0-44.8c-87.7,0.1-175.4,0.3-263.1,0.6c0,56,0,111.9,0,167.9c0,55.5,0,111,0,166.4
				c89.6-10.2,179.4-18.2,269.3-24.1c0-14.9,0-29.8,0-44.7c-61.3,3-122.5,6.8-183.6,11.4l-12.7,1v-12.7c0-24.9,0-49.7,0-74.6v-11.2
				l11.2-0.6C1119.7,1846.8,1173.9,1844.2,1228.1,1842.1L1228.1,1842.1z M598.6,2077.6c44.3-10.9,88.7-21.4,133.3-30.8
				c24.7-5.2,52.2-10.7,76-18.9c13.8-4.8,27.8-11.1,39.8-19.6c15.5-11,28.1-24.3,37.1-41.1c8.7-16.3,13-33.7,13-52.2
				c0-16.2-3.8-31.4-14.6-43.9c-11.1-12.8-27-19.1-43.3-21.9l-37.8-6.6l35-15.8c14.7-6.6,28.6-15.9,37.9-29.4
				c8.8-12.9,11.8-28,11.8-43.4c0-24.3-6.4-46.4-26.6-61.3c-24-17.6-61.4-20.9-90.1-20.8c-57.1,0.3-114.3,0.6-171.4,0.9
				c0,68,0,136,0,204C598.6,1943.8,598.6,2010.7,598.6,2077.6L598.6,2077.6z M667.4,1988.8c0-30.2,0-60.4,0-90.6v-10.4l10.3-1.4
				c27.6-3.7,55.2-7.2,82.9-10.5c15.9-1.9,33.9-1.1,47.5,8.2c13.4,9.2,18.3,23.9,18.3,39.6c0,16.8-4.8,32.7-17.8,43.9
				c-14,11.9-36.7,17.1-54.4,20c-24.3,4-48.6,8.2-72.8,12.7l-14,2.6L667.4,1988.8L667.4,1988.8z M678.6,1731.4
				c27.3-1.4,54.6-2.6,81.9-3.9c14.2-0.6,29.3,1.3,41,10c11.5,8.5,15.9,21.5,15.9,35.4c0,14.8-4.8,28.2-16.3,37.9
				c-11.8,9.9-28.2,13.6-43.2,14.9c-25.9,2.1-51.8,4.4-77.7,6.8l-12.9,1.2v-13c0-25.8,0-51.6,0-77.5V1732L678.6,1731.4L678.6,1731.4
				z"/>
			
				<linearGradient id="SVGID_6_" gradientUnits="userSpaceOnUse" x1="1197.0773" y1="1875.4885" x2="1197.0774" y2="1873.0198" gradientTransform="matrix(83.0317 0 0 -32.8455 -97895.3672 63648.4609)">
				<stop  offset="0" style="stop-color:#29AAE3"/>
				<stop  offset="1" style="stop-color:#0091D5"/>
			</linearGradient>
			<path class="st8" d="M1388.8,2069.7c-21.8,6-46.5,63.4-54.4,79.5c-11.1,22.8-30.4,69.1-55.4,84.5c-19.5,12.1-43.8,12.7-55.6-10.5
				c-4.8-9.5-6.1-21.1,1.6-18.4c2.8,1,6.7,3,11.7,3.9c31.3,6,66.5-57,77.3-75.1c9.4-15.6,36.5-65.8,59.6-69.7
				C1380.8,2062.8,1388.1,2064.2,1388.8,2069.7L1388.8,2069.7z M1164.4,2116.3c11.9,0,21.6,9.7,21.6,21.6c0,11.9-9.7,21.6-21.6,21.6
				c-11.9,0-21.6-9.7-21.6-21.6C1142.8,2126,1152.4,2116.3,1164.4,2116.3z M1835.6,2116.3c11.9,0,21.6,9.7,21.6,21.6
				c0,11.9-9.7,21.6-21.6,21.6c-11.9,0-21.6-9.7-21.6-21.6C1814,2126,1823.7,2116.3,1835.6,2116.3z M1689.1,2122.4
				c-20,0.2-45.1,3.3-71.8,5.7c-12.4,21.4-25.3,43.3-36.4,62.7c-12.1,21,3.4,28.8,25,9.4c11.8-10.6,27.2-34.7,33-51.5h31.1
				c-10.4,18.5-18.4,32.6-23.9,42.2c-10.3,18.8-3.7,30.1,17.9,10c11.6-10.8,30.9-37.2,33.5-52.2h31.1
				c-16.9,28.9-29.6,53.5-38.2,73.8c13.5-6.5,27.1-15.7,37.2-26.7C1756.6,2163.6,1745.5,2121.8,1689.1,2122.4L1689.1,2122.4z
				 M1348,2026.6c47-2.3,102.4,12.2,102.4,55.8c0,28.6-27,49.1-59,58.8c-12.9,3.9-41.4,9.7-40.1-5.5c35.9-1.7,67.5-22.9,67.5-52.9
				c0-31.1-33.3-45.6-68.9-43.8c-33.2,1.6-65.9,15.5-82.4,40.1c-24.1,35.8,18.4,55.1,45.9,18.8c6.4-2.1,6.2,2.3,4.3,7.2
				c-16.8,43.5-90.7,48.9-90.7,1.9c0-9.9,2.8-19.5,8.3-28.7C1256.2,2043.2,1303.6,2028.7,1348,2026.6L1348,2026.6z M1587.1,2130.2
				c-17.9,0.9-35.9,0.9-53.1-0.9c-27.8-2.9-46.8-8.5-58.5-17.9c-24.8-20-21.1-57.2,16.1-63.3c13.6-2.2,26,1.5,28.7,5.8
				c4.3,6.7-9.8-2.2-17.9,13.8c-19.2,37.8,44.5,43.1,98.3,38.8c2.9-5.5,6-12.4,6-17.6h33c-3,5.3-6.1,10.8-9.3,16.3
				c23.4-1.8,45.6-2.6,62.6-0.8c72,7.6,89.5,61.6,42.9,105.2c-22.1,20.7-53.5,32.6-74.6,39.3c-18.1,5.8-44.8,11.1-58.1,21.5
				c-26.9,21.2,7.2,39.1,28.3,14.9c5.5-6.3,10.7-14.8,15.6-25.6c12-3.3,23.2-7.1,32.4-10.4c-3.8,9.2-7.4,16.9-10.8,23.2
				c-7.1,12.8-18.1,27-34.8,32.4c-52.6,16.9-84.5-24.8-49.6-47.6c18.5-12.1,49.9-16.7,72.5-23.1c2-5.3,4.3-10.8,6.9-16.7
				c-18.1,15.8-55.1,24.1-53.7-3.8c-18.7,17.4-59.3,31.7-64.7-0.4c-38.3,37-75.6,18.9-51.7-28c4.4-8.6,10.5-18.5,18.4-29.6
				c-8.6,0.6-15.5,0.9-20.6,0.9c-9.6,22.3-32.5,58.6-59.5,71.5c-16.9,8.1-38.3,5.4-38.3-14c-20.1,21.5-55.8,29.1-55.8-5
				c0-19.8,15.7-41.7,34.1-54c14.2-9.5,40-16.6,48.4,1.9c0.9-2.8,1.9-5.7,1.9-8.6h31c-10.4,18.5-18.4,32.6-23.9,42.2
				c-2.1,3.7-9.8,20.8,1.1,20.8c17.4,0,43.2-45.3,47.8-57.1c-3.8-2.3-5.8-5.6-5.8-10.2c0-4.1,1.4-7.7,4.3-10.8
				c2.8-3.2,6.3-4.7,10.3-4.7c2.8,0,5,0.9,6.7,2.7c1.7,1.8,2.6,4.1,2.6,7c0,1.2-0.2,2.7-0.6,4.5c8.4-0.4,18-1.8,26.1-1.8
				c9.2,0,25.4,6.4,19,15.6c-7.2,8.8-12.2,17-17.4,26.7c-22.6,42,13.2,32.9,36.9-8C1568.7,2161.4,1578.3,2145.3,1587.1,2130.2
				L1587.1,2130.2z M1375.7,2211.7c16.3,0,32.8-33.2,38.2-42.6c-2.2-14.6-13.5-13.4-25-3.4
				C1380.1,2173.4,1353.8,2211.7,1375.7,2211.7L1375.7,2211.7z"/>
			<path class="st1" d="M1276.7,1220.7c-54.6,44.3-111.5,110.6-147.8,185.7l41.1,12.9c14.5-67.8,71.5-153.6,132.5-204.2
				c2.6,10.5,2.1,23.3,1.7,28.3c9.3,5.6,11.2,8.4,11.2,8.4l-12.6-1.9c3.4,31.9-3.7,55.1-21.2,81.7c51.2-20,59.9-80.5,36.8-120.7
				c7.3,4.7,15.7,11.2,22.4,19.1c15.3,18.2,24.8,42.6,24.8,42.6l6.8-17.7l-0.7,21.2c0,0,27.3,27.5,29.9,62.6
				c10.7-37.6-3.6-95.9-31.6-121.8c-13.7-12.7-30-19-45.4-20.6c10.3-1.9,23.2-2.4,32.6-0.7c-2.1-7.1-3-9.9-3-9.9s4.4,3.9,9.6,9.1
				c24.2-1.9,49.7,7.2,73.9,23.2c0,0-22.2-33-57.2-46.6c-24.9-9.7-49,4.9-60.9,14.1c5-13.4,10.5-38.4-7.9-57.1
				c-26.3-26.7-65.4-34.1-65.4-34.1c7.6,5,18.5,14.2,29,26c4.8,1.7,12.5,5.5,25,13.1c0,0-5.8-2.3-17.4-4.1
				c12.6,16.2,23.3,35.7,24.9,55.5c-8.6-15.4-23.4-29.7-44.3-36.5c-36.3-11.9-94.2,4-121.8,31.6c31.9-14.8,69.2-4.3,69.2-4.3
				l18.2-10.9l-12.1,14.6c0,0,26-3.6,49.3,0.9c13.6,2.6,26.3,9.2,34.5,14.2c-14.7-3.3-42.7-6.2-62.5,13.2
				c-27.9,27.4-35.6,68.3-35.6,68.3c16.9-38.3,51.5-50.1,61.3-52.7c2.9-7.2,5.5-12.7,5.5-12.7s-0.2,6.3,0.7,14
				C1272.1,1223,1274.3,1221.8,1276.7,1220.7L1276.7,1220.7z"/>
			<path class="st1" d="M1022.1,1011.8C909.8,1175.5,809,1400.7,770.9,1633l121.7,1.9c-15.1-195.1,70.4-473.3,195.1-659.2
				c15.5,26.3,24.3,61.3,27.4,75.1c29.5,7.8,37.2,13.9,37.2,13.9l-35.5,4.9c34.7,83.5,34.1,152.3,8.1,238.1
				c122.7-95.2,97.6-266.1,2.9-356.5c23.6,6.9,51.5,17.7,75.9,33.9c55.9,37,101.2,95.5,101.2,95.5l4.4-53.3l15.1,57.8
				c0,0,96,52.5,131.1,145.5c-1.2-110.3-86.7-256.6-183.3-304.4c-47.3-23.4-96.5-27.2-139.5-19.2c26.4-13.5,60.8-25,87.6-28
				c-11.5-17.6-15.9-24.4-15.9-24.4s15,7.1,33.4,17c64-24.5,140.3-20.3,218.6,3.6c0,0-86.7-71.6-192.2-80.3
				c-75.1-6.2-128.8,52.5-153.6,86.9c2.8-40.2-2.3-112.4-67.2-148.3C950.8,682.2,839,693.8,839,693.8c24.6,7.4,61.5,23.6,99.4,47.1
				c14.3,0.8,38.3,4.8,78.1,15.6c0,0-17.5-1.6-50.5,2.8c47.2,33.6,91.8,78,111.9,130.2c-35.6-34.8-87.3-61.6-149.3-63.4
				c-107.8-3-251.9,86.2-304.5,183.1c74.5-65.7,184-67.1,184-67.1l40.4-44l-21.1,49.2c0,0,67.4-30.5,134.2-37
				c38.9-3.8,78.6,3.8,104.9,10.8c-42.4,2.7-120.5,17.4-158.5,85.9c-53.6,96.7-41.7,213.4-41.7,213.4
				c15-117.3,99.3-176.9,123.6-191.8c2.1-21.8,4.6-38.9,4.6-38.9s4.4,17.2,13,37.4C1011.7,1021.7,1016.7,1016.7,1022.1,1011.8
				L1022.1,1011.8z"/>
			<path class="st1" d="M2012.8,967.4c0,0-40.6,7.6-56.8,27.8c-16.1,20.2,10.2,44.9,10.2,44.9s-36.4-16.3-44.4-14.3
				c-8,2-26.7,12.9-43.2,27.8c-16.5,14.9-23,24.7-23,24.7s-0.4-24.8,16.1-46.1c16.5-21.3,39.2-25.1,39.7-33.1
				c0.5-8-7.5-14.7-7.5-14.7s13.2,4.4,23.9,8.2C1938.4,996.4,1943.5,943.4,2012.8,967.4L2012.8,967.4z M2058.8,1139.4
				c0,0-18.7,5-25.5,15c-6.8,10,6.4,20.6,6.4,20.6s-17.5-6.3-21.2-5.1c-3.7,1.2-12,7-19.2,14.5c-7.2,7.5-9.8,12.3-9.8,12.3
				s-1.1-11.6,5.9-22.1c6.9-10.5,17.4-13.1,17.3-16.8c0-3.7-4-6.6-4-6.6s6.3,1.6,11.4,3C2025.2,1155.5,2025.7,1130.6,2058.8,1139.4
				L2058.8,1139.4z"/>
			<path class="st1" d="M1672.7,1329.1c-4.1,9.3-11.4,17.7-19.6,24.9h-88.5c-8.2-7.2-15.5-15.5-19.6-24.9
				C1573.5,1326.2,1644.1,1326.2,1672.7,1329.1L1672.7,1329.1z M1609.7,1196.6c0,0,5.1,42.5,4.7,74c-0.4,31.4-0.2,55.4-0.2,55.4
				s-29.5-6.8-57.2-2.3C1567.9,1311.6,1596.7,1273.8,1609.7,1196.6L1609.7,1196.6z M1613.7,1203c16.3,31.4,33.3,86.5,29.6,121.7
				c0,0-7.5-11.2-25.7-18.6C1621.6,1295.1,1633.2,1255.1,1613.7,1203z"/>
		</g>
	</g>
</g>
</svg>
