<?xml version="1.0" encoding="utf-8"?>
<!-- Generator: Adobe Illustrator 23.0.3, SVG Export Plug-In . SVG Version: 6.00 Build 0)  -->
<svg version="1.1" id="Layer_1" xmlns="http://www.w3.org/2000/svg" xmlns:xlink="http://www.w3.org/1999/xlink" x="0px" y="0px"
	 viewBox="0 0 1000 1000" style="enable-background:new 0 0 1000 1000;" xml:space="preserve">
<style type="text/css">
	.st0{fill:#282626;}
	.st1{fill:url(#SVGID_1_);}
	.st2{fill:url(#SVGID_2_);}
	.st3{fill:#635F5F;}
	.st4{fill:url(#SVGID_3_);}
	.st5{fill:#FFFFFF;}
	.st6{fill:#EAD1A0;}
</style>
<g>
	<path class="st0" d="M525.8,814.7c-252.3,0-421.4-257.9-323.9-488.4c17.7-41.9,43.1-79.5,75.3-111.7
		c32.3-32.3,69.9-57.6,111.7-75.3c43.3-18.3,89.4-27.6,136.8-27.6c47.5,0,93.5,9.3,136.8,27.6c41.9,17.7,79.5,43.1,111.7,75.3
		c32.3,32.3,57.6,69.9,75.3,111.7c18.3,43.3,27.6,89.4,27.6,136.8C877.4,657.2,720.2,814.7,525.8,814.7z"/>
	
		<linearGradient id="SVGID_1_" gradientUnits="userSpaceOnUse" x1="190.1476" y1="461.8101" x2="856.1798" y2="461.8101" gradientTransform="matrix(0 1 -1 0 987.6377 -60.006)">
		<stop  offset="0" style="stop-color:#E51786"/>
		<stop  offset="0.2688" style="stop-color:#E9506A"/>
		<stop  offset="0.6022" style="stop-color:#F6AE3D"/>
		<stop  offset="1" style="stop-color:#F8E51F"/>
	</linearGradient>
	<circle class="st1" cx="525.8" cy="463.2" r="333"/>
	<linearGradient id="SVGID_2_" gradientUnits="userSpaceOnUse" x1="526.2869" y1="58.1003" x2="526.2869" y2="724.1326">
		<stop  offset="0" style="stop-color:#E51786"/>
		<stop  offset="0.2688" style="stop-color:#E9506A"/>
		<stop  offset="0.6022" style="stop-color:#F6AE3D"/>
		<stop  offset="1" style="stop-color:#F8E51F"/>
	</linearGradient>
	<path class="st2" d="M193.3,460.7h666c0,0.8,0,1.7,0,2.5c0,9.9-0.4,19.7-1.3,29.4H194.6C193.6,481.5,193.2,471.1,193.3,460.7z
		 M202.6,384.5c-3,12.3-5.3,25-6.9,37.8h661c-1.6-12.8-3.9-25.5-6.9-37.8H202.6z M844.1,562.9c2.7-8.5,5-17.2,7-26H201.5
		c2,8.8,4.3,17.5,7,26H844.1z M611,141c-27-7.1-55.4-10.9-84.7-10.9c-29.3,0-57.6,3.8-84.7,10.9H611z M228.9,613.2
		c54.9,108.6,167.4,183,297.4,183c130,0,242.5-74.5,297.4-183H228.9z M398,155.8c-32.9,13.7-63,32.6-89.6,55.5h435.8
		c-26.5-23-56.7-41.8-89.6-55.5H398z M231.4,308.3c-7.4,14-13.8,28.6-19.1,43.7h628c-5.3-15.1-11.8-29.7-19.1-43.7H231.4z
		 M286.6,232c-14.7,15.2-27.9,31.8-39.5,49.6h558.5c-11.6-17.8-24.8-34.4-39.5-49.6H286.6z"/>
	<g>
		<path class="st0" d="M728.3,521c0,0,3.4-114.9,27.8-179c0,0-2.9,35.1,10.7,64.3c0,0,10.8-32.1-3.7-67.7c0,0,18.8,25.2,23.2,45.9
			l1.3-1.8l0,5.2l3.2-3.3l-2.1,9.9c0,0,9.2,20.8,10.1,35c0,0,17.4-51.9-30.3-94.2c0,0,21.4,8.2,35.5,27.9l2.4-1.6l0,4.3l4.5-3.7
			l0,7.3c0,0,16.2,23.5,18.2,34.7c0,0,7.7-41.1-20.6-63.9c0,0-15.3-12.3-35.4-10.4c0,0,20.9-5.8,43.1,9l2.8-3.3l-0.2,6.7l3-4.5
			l1,7.1c0,0,15.5,8.5,20.6,13.7c0,0-5.6-32.7-42-40.5c0,0-14-2.8-23.2,1.9c0,0,14.7-9,32.8-4.6c0,0-8.8-12.2-30.1-3.1
			c0,0,1.7-21.8-21.5-27.1c0,0,12.7,16.6,13.1,30.6c0,0-8-25.8-37.7-33c0,0-19.7-4.6-39.4,6.9c0,0,19.3,8.7,23.4,12.1l2.6-3.9
			l-0.4,6.1l4.3-3.1l-1,4.1c0,0,20.7-2.1,36,14.1c0,0-14.7-13.1-43.9-6.9c0,0-24.6,8-23.8,30l18.6-11.7l1.2-6.3l1.4,5.1l2.4-5.5
			l0.8,3.9c0,0,15.6-8,33.5-5c0,0-37.4,3.2-38.3,31.1c0,0,15-19,38.7-19.9c0,0-41.3,94.6-40.8,187.2L728.3,521z"/>
		<path class="st0" d="M714.2,521c0-0.9-14.3-134.3-80.5-206.6c0,0,16.5,2.2,24.8,8.2l1.6-2.2l2.5,4.7l2.4-4.7l1.9,5.7
			c0,0,12.8,2.2,19.9,4.6c0,0-11.9-29.4-55.8-22.9c0,0,10.3-3.9,14.4-4.1l1.2-3.9l4.9,4.7l1.6-6.5l5.5,7.7c0,0,24.4-0.5,34.6,2.1
			c0,0-14.7-25.3-46.8-21.7c0,0-18.7,2.7-26.6,13.5c0,0,10.5-13.9,18.8-16.5l1.2-3.5l5.3,4.2l1.2-4.3l2.9,3.8c0,0,11.8-8,23.9-9.3
			c0,0-15.1-9.1-34.8-1.9C618.7,279.3,616,300,616,300s-5.2-21.1,13.9-32c0,0-30.9,0.5-21.4,32.8c0,0-12.4-9.3-33.3-1.3
			c-20.9,8-20.2,32.6-20.2,32.6s14.6-11.6,22.3-14.3l-0.6-5.3c0,0,3.7,4.9,3.5,4.3c-0.2-0.6,2-2.7,2-2.7l1.6,1l1.4-7.9l5.9,4.9
			c0,0,15.4-6.2,21.9-6.2c0,0-23.2,3.4-32.8,22.7c-9.7,19.3,1.4,44.5,1.4,44.5l7.6-27.1l-4.3-4.7l7.7,0c0,0-5.3-3-4.7-3.2
			c0.6-0.2,4.9-1.2,4.9-1.2s3.2-10.8,12.9-19.2c0,0-24.5,28.8,20,64.9c0,0-10.2-14.8-9.1-37.4l-2.5-3l5.7-1.2l-6.7-7.3l10.4,2.4
			c0,0-2.3-6.5-2.5-9.7c0,0,4.2-6.1,4.8-6.3c0.6-0.2,62.3,84.5,67.9,201L714.2,521z"/>
	</g>
	<path class="st0" d="M893.5,615.5c-0.4-2.5-1.3-7.8-3.8-12.9c-6.4-12.6-19.3-16.1-30.2-12.1c0.9-2,3-5.7,3-11.3
		c0-21.1-14-35.9-22.3-40c11.4-28.7,13.1-56.6-7.9-79.8c-19.1-21.2-43.8-22.5-62.7-8c-21.3,16.4-23.9,48.1-20.3,69
		c-15.9-9-40.5-7-58.7,9.4c-2.5-2.2-5.4-4.4-8.7-6.6c-8.4-5.6-20.9-12.2-33-12.2c-6,0-12.1,1.5-18.1,4.5
		c-13.2-9.3-24.6-7.1-38.6,0.1c-18.6-8.5-39.2-15.1-50.2,7c-16.9-11-32.9-15.8-50.1-7.1c-5.8-4.1-11.8-6.2-17.9-6.2
		c-5.7,0-12.4,2-20.7,6.3c-18-8.3-35.9-13.7-47.5,2.4c-17.1-15.1-37.3-15.5-47.3,6.3c-9.2-12-23.3-19.9-34.9-20.3
		c0.7-3.5,1.2-7.1,1.6-10.8c5.5-39.5-13.6-74.3-51.6-74.3c-49.2,0-149.9,72.9-159,169.3c-0.1,0.9-0.1,1.8-0.1,2.7
		c0.1,3.3,0.9,15.1,7.8,27.9c4.8,9,13.4,19.9,28.5,26.6c-13.6,12.7-29,34.8-32.4,70.5c-2.6,28,2.1,50.2,14.1,66
		c10.5,13.8,25,19.8,35,20.7c1.4,0.1,2.9,0.2,4.5,0.2c21,0,69.3-13.2,106.3-52.3c2.3,11.5,8,22.5,16.5,31.6
		c8.4,9,20.8,17.2,32.9,16.7c17-0.8,26.1-14.9,28.8-26.9c11.1-36.8,27.9-54.9,52.8-56.3c-7,25.5-20.3,77.6-20.3,104.1
		c0,36.8,17.4,62.2,53.3,61.9c10.3,0,23.3-6,39.6-18.2c8.4,11,20.4,17.4,35.7,17.4c9.2,0,20.2-4.6,34.2-14.3
		c9.1,3.9,18.4,5.1,22.9,5.1c4.6,0,10.5-1.2,15.7-5.9c18.8,15.5,33,13.6,41.5,6.1c7.7,6.4,16.7,9.8,26,9.8c6.2,0,14.8-1.5,27.5-11.9
		c19.8,16.5,55.9,18.1,83.5-9.5c9.2-9.2,19-23.5,19-36.1c0-0.4,0-0.7,0-1.2c-0.9-16.6-5.7-26.2-11-31.8c3.7-8,4.9-16.6,4.4-22.2
		c-1.1-12.7-8.6-34.6-28.7-42.6c23.1-6,36.5-25.2,42.1-44c7.6,2.9,14.2,3.8,18.1,4.1c0.6,0,1.2,0.1,1.8,0.1
		c27.7,0,46.7-10.3,57.8-18.9c13.9-10.8,22.5-24.8,22.5-36.3C894.8,626.6,894.3,620.5,893.5,615.5z"/>
	<path class="st0" d="M758.4,805.6c-2.4-0.5-12.3,21-21.8,34.5c-4.9,7.8-10.3,13.3-18.5,9.5c-3.4-1.6-6.9-4.4-9.6-8.6
		c3,3,7.2,5.6,11,6.2c-4.9-9-2.5-32.4-1.3-34.6c1.4-2.7,40.4-16.5,40.4-41.7c0,0-2.7-31.4-31-23.8c-30.3,8.2-39.5,61.4-38.9,77.3
		c-4,4-15.9,15.7-21,15.7c-6.1,0,17.6-70.6,17.6-76.7S663,742,652.4,742c-10.6,0-20.4,12.6-20.4,12.6s-9.2-14.2-15.6-14.2
		c-6.4,0-25.1,12.8-25.1,12.8s-1.4-7-3.3-7.8s-13.7-6.7-20.1-6.7c-5.5,0-14.8,62-17.2,86.4c-4,3.6-8.1,7.1-12.3,10.1
		c-6.7,5.6-15.4,10.9-24.3,11.1c-5.3-0.2-8.2-1.7-11.9-4.6c4.2,2.6,8.2,3.5,12.2,3.1c-11.3-4.4,20.3-77.9,19.6-90.1
		c-0.7-12.5-13-26.4-20-26c-6.5,0.4-22.6,43.7-23.1,81.7c-3.5,3.9-7.4,7.9-11.5,11.9c-14.8,16-31.1,28.6-52.3,23
		c-4.3-1.4-5.2-2.1-7.8-3.7c6.4,3.3,12.4,4.1,19.2,3c-5.9-11.9,21.8-103,33.5-146.8c13.5,1.2,28.3,2.5,43.2,3.8
		c0.7-2.3,1.5-4.7,2.5-7.1c-16.1-1.7-30.2-3.9-43.3-6c1.7-6.8,2.6-11.5,2.5-13.3c-0.7-12.5-13-26.4-20-26
		c-2.2,0.1-7.4,12.8-13.5,31.3c6.7,2,14.1,4.3,23.5,7.1c-36.5-5.9-53-8.9-79-7.7c-65.8,3.1-88.7,50.1-88.2,61.1
		c1,21.8,20.7,35.9,26.8,35.6c6.1-0.3,7.9-9.9,7.9-9.9c14.7-49.5,41.4-73.5,78.1-73.5c4,0,13.4,0.6,26.2,1.7
		c-12.8,41.8-27.3,100.7-27.3,125.2c0,41.1,25.1,39.3,30.7,39.3c9.1,0,32.5-17,49.4-33.7c3.8,33.3,20.7,32.9,25.9,32.9
		c6.5,0,20.3-8.7,33.8-19.8c4.4,7.6,18.1,10.6,23.2,10.6c6.1,0,14.5-75.9,15.9-79c1.1-2.4,8.1-11.1,14.4-14.5
		c4.2-3.5,9.1-5.8,15.2-5.5c-4,0.8-7.1,2.5-9.6,4.8c3.4,7.8-17.1,74.1-17.1,79.3c0,5.6,17.3,20.6,23.2,20.6c5.9,0,13.4-66.7,23.4-87
		c0,0,3.7-5,8.2-8.4c4.5-4.6,10.2-8,17.6-7.7c-4,0.8-7.2,2.5-9.7,4.9c4.5,4.2-17.1,58.7-17.1,88.5c0,0,6.7,13.9,19,13.9
		c9,0,24.5-17.2,32.1-26.3c2.2,12.5,7.9,24.1,26.9,26.1c28.4,3,48.5-27.3,48.5-34.7C765.1,824.2,764.2,806.9,758.4,805.6z
		 M741,757.8c-4.6,4.3-7.4,9.1-8.8,14.3c1.1,0.9,1.8,2.6,1.8,4.8c0,6.4-13.5,17.4-14.5,17.8C724.7,776.4,727.5,765.2,741,757.8z
		 M302.1,642.5C291.5,754.5,191,782.2,169.6,780.2c-7.8-0.7-33.6-10.4-28.7-62.1c4.9-51.8,40.2-66.7,40.2-66.7
		c21.4,2,12.2,39.7,12.2,39.7c-37.9,43.9-35.9,63.3-33.3,69.6c-6.1-5.6-7.4-21.4-0.5-43.3c-18.2,47.8,6.5,70.2,38.9,22
		c26.8-37.5,44.3-107.6,48.4-125.2c8.1-6.2,14.6-9.6,24.6-5.8c-15.4-8.2-27.9,4.8-42,12.1c-13.2,7.3-39.3,10.3-53.9,8.3
		c-37.5-3.5-38.3-38.2-38.3-38.2c8.4-88.6,105.3-152,139.1-148.8c33.8,3.2,26.6,48.9,26.6,48.9c-5.5,58.2-55.9,59.4-55.9,59.4
		c-25.1-4.3-4.8-18.7-4.8-18.7c41.4-21.8,44.1-60.5,43.9-72.5c4.9-0.2,8.2,6.4,9.5,11.1c1.7,6.2,0.8,12.5-0.2,18.7
		c0.9-3.2,1.6-5.9,2.2-9.2c2.1-12.8-2.9-21.4-8-24.1c-2.7-1.3-7-1-11.8,0.6c-40.8,11.1-93.8,124.1-85,134.7
		c9.4,11.3,61.8,1.9,61.8,1.9C296,596.3,303.6,626.4,302.1,642.5z M868.3,611.6c-2.5,0-4.2,3.6-4.2,3.6
		c-21.8,33.5-46.6,38.5-46.6,38.5c0-0.1,0-0.1,0-0.2c-8.9,2.7-17.4,2.2-23.8-4.4c6.8,5.8,15.2,5.3,23.5,1.7
		c-0.8-23.2,22.6-71.7,22.6-71.7c0-13.1-9.8-19.8-9.8-19.8c-5.5-2.3-11.7-8.1-17.1-15c7.7-15.2,12.9-30.3,12.9-43.3
		c0-21.8-18.1-36.8-28.7-36.8c-2.8,0-26.5,0.8-26.5,41c0,23.8,12.7,41,23.1,51.1c-15.2,23.6-39,51.8-52.3,65.8l0.2,0
		c-4.3,4.7-19.3,20.7-25.6,20.1c-6.5,1.5-12.8-0.9-16.2-6.1c3.4,3.3,7.9,4.3,12,3.2c-5.3-8.5-2.9-33-1.7-35.2
		c1.4-2.7,40.4-16.5,40.4-41.7c0,0-2.7-31.4-31-23.8c-30.2,8.1-40.8,62.7-38.5,81.4c-5.3,5-13,11.6-16.8,11.6
		c-6.1,0,17.6-70.6,17.6-76.7c0-6.1-22.3-21.5-32.9-21.5c-10.6,0-20.4,12.6-20.4,12.6s-9.2-14.2-15.6-14.2
		c-6.4,0-25.1,12.8-25.1,12.8s-1.4-7-3.3-7.8c-2-0.8-13.7-6.7-20.1-6.7c-5.4,0-14.4,59.5-17.1,84.9c-2.4,2.4-16.4,16.7-22,16.7
		c-6.1,0,17.6-70.6,17.6-76.7c0-6.1-22.3-21.5-32.9-21.5c-10.6,0-20.4,12.6-20.4,12.6s-9.2-14.2-15.6-14.2
		c-6.4,0-25.1,12.8-25.1,12.8s-1.4-7-3.3-7.8c-2-0.8-13.7-6.7-20.1-6.7c-6.5,0-18.2,86.2-17.8,95.3c-2.6,1.9-6.3,4.3-9.8,6.4
		c-9.5,8.8-21.2,6.9-26.1-0.7c3.9,3.7,8.8,4.4,13.3,2.8c-0.1-12.2,18.7-75.3,18.7-80.6c0-5.7-14.9-23.5-22-23.5
		c-4.9,0-14.9,52.8-24.9,82.1c-1.6,6.4-3.5,13.3-8.7,18.3c-6.9,6.8-15.7,5.8-19.8,0.5c3.9,3.3,10.2,3.7,14.8-1
		c-17.2-15.3,2.5-65.4,2.5-78.5c0-13.3-15.7-24.7-22.9-24.7c-7.2,0-18.6,83.1-18.6,96.7c0,17.8,30.1,26,40.4,26
		c7.2,0,14.9-15.7,14.9-15.7s10.3,17.2,23.8,17.2c9.8,0,21.8-11.7,27.7-18.1c5.6,5.8,16.8,8.1,21.3,8.1c6.1,0,14.5-75.9,15.9-79
		c1-2.3,7-9.7,12.9-13.6c4.3-4,9.6-6.7,16.2-6.4c-3.8,0.7-6.9,2.3-9.3,4.6c4.1,6.4-17,74.3-17,79.6c0,5.6,17.3,20.6,23.2,20.6
		c5.4,0,12.2-56.4,21.1-81.3l-0.1,0c0.1-0.1,0.1-0.2,0.2-0.4c0.7-2,1.5-3.8,2.2-5.3c0,0,2.8-3.9,6.5-7.1c4.9-5.5,10.8-9.4,18.8-9
		c-3.9,0.7-7,2.4-9.5,4.8c5.5,2.6-16.9,58.4-16.9,88.6c0,0,6.7,14,19,14c8.7,0,23.4-16,31.3-25.3c0.4,11.1,18.5,15.2,24.5,15.2
		c6.1,0,14.5-75.9,15.9-79c1-2.3,7.1-9.9,13.1-13.7c4.4-4,9.5-6.5,16-6.2c-3.8,0.7-6.9,2.3-9.3,4.6c4,6.4-17,74.3-17,79.6
		c0,5.6,17.3,20.6,23.2,20.6c5.4,0,12.2-56.4,21.1-81.3l-0.1,0c0.1-0.1,0.1-0.2,0.2-0.4c0.7-2,1.5-3.8,2.2-5.3c0,0,2.8-3.8,6.4-7
		c5-5.6,10.9-9.5,18.9-9.1c-3.9,0.7-7,2.5-9.5,4.8c5.4,2.6-16.9,58.4-16.9,88.6c0,0,6.7,14,19,14c7.7,0,20.3-12.7,28.4-22
		c2.8,10.7,9.2,20,25.9,21.8c29,3.1,77.8-62.2,93.4-86.9c2.9,2.2,4.9,3.4,4.9,3.4s-24.6,39.9-24.6,67.2s32.1,29.9,32.1,29.9
		c39.3,0,57.8-26.2,57.8-32.6C872.2,625,870.8,611.6,868.3,611.6z M732.3,551.4c-3.9,3.6-6.6,7.7-8.2,12.3c1.1,0.9,1.9,2.6,1.9,4.9
		c0,6.4-13.5,17.4-14.5,17.8C715.8,571.1,718.4,559,732.3,551.4z M799.8,522.4c-1.2-3-1.8-5.6-1.8-7.6c0-12.8,4.2-19.3,7-19.3
		c2.8,0,11.4,2.5,8.4,18.7c-1.1,5.8-3.4,12.2-6.5,18.9c1.3,3.9,3.4,7.6,5.8,11C805.3,537.3,801.8,530.9,799.8,522.4z M745.5,704.9
		c-26.1,5.8-78.5,4.8-119.3,4.4c-13.7-0.1-40.1-2-69.9-4.4c0.8-2.5,1.6-5.1,2.2-7.6c56.8,2.4,146,0,193.6-30.7
		c0,0,16.3-10.8,21.3-11C778.4,655.3,774.8,698.4,745.5,704.9z M520.7,711.9c-0.1-5.5,8.8-36.5,23-32.7c14.2,3.8,7.1,16.3,3.4,30.3
		C538.3,742,520.9,718.7,520.7,711.9z"/>
	<g>
		<path class="st3" d="M468.8,655.6c5.3,5.1,10.1,13.3,10.5,21c0.1,1.3-0.4,4.2-1.4,8.4c-0.6,2.7-0.3,5,0.8,5.2
			c2.9,0.5,4.4-10.3,4.3-12C482,660.3,462,649,468.8,655.6z"/>
		<path class="st3" d="M412.9,640.4c4.3-4.3,2-7.4-3-2.4c-6.9,6.9-17.4,15.9-27,14.2c-2.6-0.5,1.8,1.9,6.5,1.9
			C397.2,654.1,406.5,646.6,412.9,640.4z"/>
		<path class="st3" d="M521.6,654.1c6.9,0,17.4-9.9,25.4-18.7c3.6-4,3.4-9.7-1.2-4.5c-8.2,9.3-20.4,21.5-28,21.5
			c-0.8,0-1.6-0.1-2.4-0.2C513.2,651.9,516.8,654.1,521.6,654.1z"/>
		<path class="st3" d="M361.9,643.3c3.1-4.7,1.3-9.9-2.5-3.7c-2.9,4.6-7.8,11.3-12.4,11.3c-8.7,0-22.9-5.5-15.8-2.7
			c7.6,2.9,15.3,4.4,19.6,4.4C354.8,652.6,359,647.6,361.9,643.3z"/>
		<path class="st3" d="M525.8,735.2c5.3,5.1,10.1,13.3,10.5,21c0.6,10.7-23.9,69.3-21.9,85.9c0.3,2.8,0.7,4.4-1.4,4.2
			c-4.8-0.5,1.6,1.4,3,1.5c3.7,0.2,2.4-0.3,2.1-4.9c-1.2-17.6,22.6-74.5,22-85.1C539,739.9,519,728.6,525.8,735.2z"/>
		<path class="st3" d="M555.1,684.9c-2.2-1.7-2.3-1-1.3,1.5c2.5,5.9-1.8,14.9-4.4,24.7c-2.6,9.6-5.9,14.3-9.4,16.1
			c-2.5,1.2-3,2.1-0.3,2.4c9.5,1,12.9-15.6,14.9-22C557.8,697.9,560.9,689.5,555.1,684.9z"/>
		<path class="st3" d="M429.4,846.4c5.6,2,12,1.8,15.1,1.3c0,0-0.7-2.2-0.7-4.9c-0.3-21.8,21.8-95.8,33-137c0.7-2.7,3.5-4.7,6.3-4.4
			c10.6,0.9,21.8,1.9,33.2,2.9c2.8,0.2,5.5-1.2,6.1-3.2c1.7-5-2.8-4.7-4-1.1c-0.6,1.6-3.2,2.8-5.9,2.5c-11.4-1-22.6-2-33.2-2.9
			c-2.8-0.2-5.6,1.7-6.3,4.4c-11.2,41.2-33.3,115.2-33,137c0,2.8-1.4,5.3-4.2,5.4c-3.3,0-6.4-0.4-9.6-1.5c-6.7-2.3,2.2,1.6,0.3,0.5
			C425.9,845,427.1,845.6,429.4,846.4z"/>
		<path class="st3" d="M506.6,844.4c-1.2-0.6-0.8,0,1.1,1.1C509.8,846.7,512.7,847.4,506.6,844.4z"/>
		<path class="st3" d="M801.8,569.5c-17.9,27.2-63.2,85.6-90.6,82.7c-1.6-0.2-3.2-0.4-4.6-0.7c-5.1-1.1,1.1,1.6,8.4,2.4
			c27.2,2.9,72-54.5,90.2-82C808.6,566.5,805.5,563.8,801.8,569.5z"/>
		<path class="st3" d="M427.3,641.3c-6.7-1.6,4.4,2.7,11.2,2.7c6.1,0,14.5-75.9,15.9-79c0.8-1.7,4.5-6.6,8.9-10.5
			c2.1-1.8,4.7-3.8,5.6-4.5c1-0.8,1.7-1.5,1.6-1.7c-0.1-0.2,1.5-2,4-3.2c0.1-0.1,0.3-0.1,0.4-0.2c5.4-2.5-2.4-1.4-7.5,1.8
			c-8,5.1-15.4,13.5-16.8,16.7c-1.4,3.1-9.8,79-15.9,79C432.9,642.4,430.2,642,427.3,641.3z"/>
		<path class="st3" d="M376.4,634.6c-1.3-0.8-1,0.3,1.2,1.9C380.2,638.4,383.7,639.2,376.4,634.6z"/>
		<path class="st3" d="M566.2,641.3c-6.7-1.6,4.4,2.7,11.1,2.7c6.1,0,14.5-75.9,15.9-79c0.8-1.8,4.6-6.8,9.1-10.7
			c2.1-1.8,4.7-3.7,5.6-4.4c0.9-0.7,1.6-1.4,1.5-1.6c-0.1-0.2,1.5-2,3.9-3.2c6.2-3.1-2.4-1.3-6.8,1.5c-8.3,5.2-15.7,13.7-17.1,16.8
			c-1.4,3.1-9.8,79-15.9,79C571.9,642.4,569.2,642,566.2,641.3z"/>
		<path class="st3" d="M715.3,583.2c-0.8,2.7,0,3.9,1.5,2.6c1.5-1.3,3.3-4.6,4.2-7.3c2.5-8.1,2.9-8.3,5-11.8c1.2-2,1.3-4.9,5.4-10
			c3.9-4.8-3.3,0.1-7.2,5.3C719.6,568.1,718.4,572.7,715.3,583.2z"/>
		<path class="st3" d="M687.7,765.1c0,6.1-23.7,76.7-17.6,76.7c1.8,0,2.4-0.4,3.2-5.7c2.9-18.3,18.1-64.4,18.1-69.3
			c0-4.1-10.1-12.4-19.9-17.4C662.7,744.9,687.7,757.9,687.7,765.1z"/>
		<path class="st3" d="M632.7,750.6c-6-6.8-8.6-6.7-5.6-3.7c1.7,1.7,3.2,3.5,4.4,5.1C636.3,758.4,636.1,754.6,632.7,750.6z"/>
		<path class="st3" d="M752.6,753.4c7.4,7.4,8.4,19.2,8.4,19.2c0,25.2-39,39-40.4,41.7c-1,1.9-2.9,19.2-0.3,29.9
			c0.6,2.7,1.2,4.6,0.7,4.5c-0.5-0.1,0.2,0.4,1.8,1c1.6,0.6,1.9-1.2,1.2-3.9c-2.5-10.6-0.6-28,0.3-29.9c1.4-2.7,40.4-16.5,40.4-41.7
			c0,0-1.3-15.1-11.6-21.8C750.8,751,750.6,751.5,752.6,753.4z"/>
		<path class="st3" d="M660.5,654.1c6.1,0,15.1-7.8,22.6-15.7c4.3-4.5,3.3-9.3-1.3-4.3c-8,8.7-18.3,18.3-25.1,18.3
			c-0.8,0-1.6-0.1-2.4-0.2C652.1,651.9,655.8,654.1,660.5,654.1z"/>
		<path class="st3" d="M336,635.6c-0.6-0.5-2-1.2-3.2-1.8c-1.2-0.6-1,0.1,0.8,1.2C335.3,636.1,336.5,636.1,336,635.6z"/>
		<path class="st3" d="M728.9,786.9c2.2-7.1,6.8-18.4,11.1-23.8c1.7-2.2,1.4-2.6-0.8-1c-8.9,6.6-12,15.8-15.9,29.4
			C721.6,797.4,726.6,794.5,728.9,786.9z"/>
		<path class="st3" d="M803.6,528.9c3.3,9.6,12.3,19,8.8,12.7c-4.9-8.5-8.2-20.4-8.2-23.5c0-11.1,3.4-19.6,7.5-19.2
			c0.3,0-0.4-0.7-1.7-1.2c-1-0.4-1.9-0.5-2.6-0.5c-2.8,0-7,6.4-7,19.3C800.4,519.4,802.7,526.1,803.6,528.9z"/>
		<path class="st3" d="M475.8,648.2c-0.8-0.1,2.5,1.7,4.5,1.7c5.1,0,11.4-49.9,19.5-76.6c0.8-2.7,1.5-4.8,1.5-4.8
			c0,0,1.2-3.1,1.2-3.1c1.8-4.3,7.1-9.5,10.6-12.6c1.7-1.5,3.1-2.7,2.9-2.8c-0.1-0.2,1.3-1.9,3.8-3.1c0.2-0.1,0.5-0.2,0.7-0.3
			c2.5-1.2,2.5-1.7-0.2-1.2c-6.9,1.3-11.7,6-17.2,12c-3.9,4.2-5.1,7.8-7,14.2C487.1,600.9,481.9,649.2,475.8,648.2z"/>
		<path class="st3" d="M614.7,648.2c-0.8-0.1,2.5,1.7,4.5,1.7c5.6,0,12.8-61.4,22.3-84.4c0.6-1.5,2.5-4.3,4.2-6.3
			c1.8-1.9,4.6-4.7,6.3-6.3c1.7-1.5,3.1-2.7,3-2.9c-0.1-0.2,1.3-1.8,3.8-3.1c0.2-0.1,0.5-0.2,0.7-0.3c2.5-1.2,2.5-1.7-0.2-1.2
			c-3.9,0.8-7.3,2.6-10.3,5.2c-3.4,2.9-9.4,8.9-11.2,13.2C627.5,588.6,621.5,649.3,614.7,648.2z"/>
		<path class="st3" d="M436.2,696c-10.2-0.8-17.7-1.3-21.2-1.3c-62.7,0-75.7,70-79.7,78.2c-1.2,2.5-3.2,5-6.3,5.1
			c-0.3,0-0.7,0-1.1-0.1c-0.6-0.1,0.1,0.5,1.8,1.1c8.9,3.4,10.6-8.2,12.5-14c15-46.3,41.1-68.7,76.6-68.7c3,0,9,0.4,17,1
			C442.6,697.8,442.8,696.5,436.2,696z"/>
		<path class="st3" d="M490.4,830.6c-16.5,15.5-37.4,30.2-45.8,30.2c-1.4,0-4,0.1-7.1-0.3c-2.7-0.4-2.9,0-0.3,0.8
			c4.8,1.5,9.2,1.2,11.1,1.2c7.9,0,26.7-12.9,42.6-27.3c2.1-1.9,3.5-4.5,3.3-5.7C494.1,828.1,492.4,828.7,490.4,830.6z"/>
		<path class="st3" d="M549.8,843.3c-12.2,9.5-24.1,16.6-29.9,16.6c-1,0-2.3,0-3.9-0.2c-3.8-0.4,0.2,1.9,7.7,1.9
			c5.6,0,16.7-6.5,28.4-15.5c2.2-1.7,3.3-3.7,2.7-4.5C554.2,840.9,552,841.6,549.8,843.3z"/>
		<path class="st3" d="M195.2,592.1c0.7,0.8,1.6,1.6,2.7,2.2c1.7,0.9,2.7,1,2.1,0.5c-0.4-0.3-0.7-0.7-1-1
			c-8.7-10.5,45.5-128.7,89.7-135.9c3.9-0.6,5.1-0.2,3.3-1.1c-2.7-1.3-7-1-11.8,0.6C239.4,468.5,186.4,581.5,195.2,592.1z"/>
		<path class="st3" d="M284.3,602.5c17.6,11.1,21.3,30,20.2,41.7C294,756,190.6,786.5,169.6,781.4c-1.3-0.3-0.6,0.3,1.8,1.1
			c19.2,6.5,126.1-21.9,136.9-136.6c1.2-12.4-3-33-23.8-43.7C282.1,600.9,282,601.1,284.3,602.5z"/>
		<path class="st3" d="M611.9,758.2c0.6-0.4,1-0.9,0.9-1.2c-0.1-0.2,1.5-2,3.9-3.3c0.3-0.1,0.5-0.3,0.8-0.4c5.2-2.4-1.8-1.4-6.3,1.1
			c-9.6,5.4-17.1,14.3-18.5,17.4c-1.4,3.1-9.8,79-15.9,79c-1.7,0-4.4-0.3-7.4-1.1c-6.7-1.6,4.4,2.7,11.2,2.7
			c6.1,0,14.5-75.9,15.9-79c0.9-1.9,5.3-7.6,10.2-11.6C609,760.1,611.4,758.6,611.9,758.2z"/>
		<path class="st3" d="M818.7,539.3c-1.2,2.5-1.7,5.4-1,6.4c0.7,1,0.6,1.2-0.2,0.4c-1.8-1.8-3.1-1,1.2,3.8c3.1,3.5,6.3,6.5,9.5,8.7
			c3.9,2.7,11.3,5.9,13.6,17.3c0.5,2.7-0.5,7-1.6,9.5c-5.3,11.6-18.6,42.5-20.3,62.1c-0.2,2.8-2.2,6-4.9,6.7c-2.5,0.7-5.1,1.1-7.5,1
			c-2.8-0.1-3.6,0-1.8,0.6c2.3,0.8,4.7,1.2,9.3,0.5c2.7-0.4,4.9-1.1,4.9-1.1c0,0.1,0.5,0,1.1-0.2c1-0.3,1.1-0.3,1.8-0.6
			c0.4-0.2,0.6-2.5,0.8-5.3c1.7-19.6,15-50.5,20.3-62.1c1.1-2.5,2.2-6.8,1.6-9.5c-2.3-11.6-10.4-15-13.6-17.3
			c-3.1-2.2-6.4-5.2-9.5-8.7c-1.8-2.1-2.2-5.8-1-8.4c6.5-13.7,10.7-27.1,10.7-38.8c0-26.9-27.1-38.9-19.5-33.1
			c8.2,6.2,15.7,17.5,15.7,31.5C828.3,513.8,824.5,526.4,818.7,539.3z"/>
		<path class="st3" d="M777.7,664.4c-0.4,12.5-8,37.3-29.7,42.2c-26.1,5.8-78.5,4.8-119.3,4.4c-12.3-0.1-34.8-1.6-60.7-3.7
			c-6.7-0.5-7,0.8-0.4,1.3c27.7,2.2,51.9,3.9,64.9,4c40.8,0.3,93.2,1.4,119.3-4.4c29.3-6.5,32.9-49.6,27.9-49.3
			C777.9,659,777.8,658.8,777.7,664.4z"/>
		<path class="st3" d="M765.6,814.1c1.6,5.3,1.9,11.8,1.9,11.8c0,7.6-21.8,40.7-53.1,34c-5.1-1.1,1.1,1.6,8.4,2.4
			c28.4,3,48.5-27.3,48.5-34.7c0,0-0.9-17.3-6.8-18.6C763.3,808.7,764.5,810.3,765.6,814.1z"/>
		<path class="st3" d="M873.4,615.2c-0.6,0.2-0.3,2.7,0.2,5.5c0.7,4.2,1,9.2,1,12.5c0,6.4-18.4,32.6-57.8,32.6c0,0-3.2-0.3-7.6-1.5
			c-2.7-0.7-2.8-0.5-0.2,0.4c6.3,2.3,11.5,2.7,11.5,2.7c39.3,0,57.8-26.2,57.8-32.6s-1.4-19.8-3.9-19.8
			C874.1,614.9,873.7,615,873.4,615.2z"/>
		<path class="st3" d="M656.3,760.9c1.2-1.1,2.3-2,2.2-2.1c-0.1-0.2,1.4-1.9,3.8-3.2c0.3-0.2,0.6-0.3,0.9-0.5c5.6-2.6-3.1-1.5-9,2.9
			c-2.2,1.7-6.2,5.2-8.7,7.8c-13.4,14.5-19.6,92.2-27.4,90.8c-0.8-0.1,2.5,1.7,4.5,1.7c5.5,0,12.4-58.1,21.5-82.4
			c1-2.7,3.3-6.6,6.4-9.7C652.3,764.2,655.1,761.9,656.3,760.9z"/>
		<path class="st3" d="M595.6,750.6c-0.9-1.9-1.1-1.7-4.4-3.2c-2.7-1.2-2.4-1-0.9-0.4c0.9,0.4,1.6,2,2.2,3.6
			C594.7,757,596.6,752.6,595.6,750.6z"/>
		<path class="st3" d="M165.1,759.1c-0.8-9.1,3.2-27.5,31.2-60.9c1.8-2.1,3.8-6,4.2-8.8c1.3-8.5,2.8-25.4-6-32.1
			c-2.2-1.7-2.5-1-0.9,1.3c5.5,7.8,4.3,21.7,3.1,29.1c-0.4,2.7-2.4,6.6-4.2,8.8c-11.9,14.2-36.9,46.6-29.2,63.4
			C164.5,762.4,165.4,761.9,165.1,759.1z"/>
		<path class="st3" d="M688.9,838.3c-8.2,9.4-21,22.5-28.9,22.5c-0.8,0-1.6-0.1-2.4-0.2c-2.2-0.3,1.4,1.9,6.2,1.9
			c7,0,18-10.4,26.1-19.4C694.1,838.5,693.4,833.2,688.9,838.3z"/>
		<path class="st3" d="M591.7,545.4c1.8-1.2,0.2-4.7-1-5.2c-2.1-0.9-7.3-3.2-3.8-1.7C589,539.5,589.9,546.6,591.7,545.4z"/>
		<path class="st3" d="M527.8,633.4c1.8,0,2.4-0.4,3.2-5.7c2.9-18.3,18.1-64.4,18.1-69.3c0-4.1-10.1-12.4-19.9-17.4
			c-8.9-4.5,16.2,8.6,16.2,15.7C545.4,562.9,521.7,633.4,527.8,633.4z"/>
		<path class="st3" d="M490.4,542.2c-6-6.8-8.6-6.7-5.6-3.7c1.7,1.7,3.2,3.5,4.4,5.1C494,550,493.8,546.2,490.4,542.2z"/>
		<path class="st3" d="M624.4,537.5c-2.2-1.7-2.6-0.9-0.7,1.1c1.7,1.7,3.2,3.5,4.4,5.1C634.2,551.6,632.8,543.8,624.4,537.5z"/>
		<path class="st3" d="M712.6,606c-1,1.9-2.9,20-0.2,30.6c0.7,2.7,0.5,5-1.3,5c-1.8,0-1.3,1,1.5,1.5c3.4,0.6,4.3-2.3,3.6-4.8
			c-2.8-10.6-0.8-28.6,0.2-30.6c1.4-2.7,40.4-16.5,40.4-41.7c0,0-1.3-15.1-11.6-21.8c-2.3-1.5-2.5-1-0.6,0.9
			c7.4,7.4,8.4,19.2,8.4,19.2C753.1,589.4,714.1,603.2,712.6,606z"/>
		<path class="st3" d="M666.8,633.4c1.8,0,2.4-0.4,3.2-5.7c2.9-18.3,18.1-64.4,18.1-69.3c0-4.1-10.1-12.4-19.9-17.4
			c-8.9-4.5,16.2,8.6,16.2,15.7C684.3,562.9,660.6,633.4,666.8,633.4z"/>
		<path class="st3" d="M388,630.7c-0.4,2.7-2.1,5.7-4.2,5.8c-3,0.2-1,1.6,2.6,1.7c2.8,0.1,5-3.1,5.4-5.8
			c2.9-19.1,18.2-70.8,18.2-75.6c0-4.5-9-16.3-16.4-21.2c-2.3-1.6-2.6-1-0.5,0.9c6.5,5.7,13.1,14.9,13.1,18.7
			C406.2,559.9,391,611.7,388,630.7z"/>
		<path class="st3" d="M452.8,545.4c1.8-1.2,0.2-4.7-1-5.2c-2.1-0.9-7.3-3.2-3.8-1.7C450.1,539.5,451,546.6,452.8,545.4z"/>
		<path class="st3" d="M254.3,551c-2.7,0.4-6.2,0.3-7.7,0c-3.1-0.7,3.3,3,11.5,1.7c12.9-2,46.4-11.9,50.9-58.8
			c0,0,5.3-33.5-14.4-45.1c-2.4-1.4-2.5-1.1-0.4,0.7c15.7,13.2,11.1,42.7,11.1,42.7C300.7,539.1,267.2,548.9,254.3,551z"/>
		<path class="st3" d="M169.2,628.8c-6.3-1.7,3,2.3,12.5,3.2c14.6,2.1,40.7-0.9,53.9-8.3c3.7-1.9,7.3-4.2,10.8-6.4
			c8.2-5.1,13.7-10.1,22.6-8.7c2.7,0.4,2.9,0.2,0.2-0.5c-13.3-3.7-24.7,7.4-37.3,14C218.1,629.6,187.8,633.7,169.2,628.8z"/>
		<path class="st3" d="M342.4,627.6c1.4,2.4,1.6,5.6-1,6.6c-2.2,0.8-5.7,1.2-3.3,1.9c1.7,0.5,5.2,0.3,7.4-0.7c2.2-1,2-3.8,0.5-6.2
			c-11.2-18.6,5.7-62.5,5.7-74.6c0-16-22.5-26.9-15.3-21.3c6,4.6,11.5,11.8,11.5,19.7C348.1,565.1,331.2,609.1,342.4,627.6z"/>
	</g>
	<linearGradient id="SVGID_3_" gradientUnits="userSpaceOnUse" x1="504.6631" y1="442.4969" x2="504.6631" y2="902.2318">
		<stop  offset="0" style="stop-color:#E51786"/>
		<stop  offset="0.2688" style="stop-color:#E9506A"/>
		<stop  offset="0.5776" style="stop-color:#F6AE3D"/>
		<stop  offset="1" style="stop-color:#F8E51F"/>
	</linearGradient>
	<path class="st4" d="M758.4,805.6c-2.4-0.5-12.3,21-21.8,34.5c-4.9,7.8-10.3,13.3-18.5,9.5c-3.4-1.6-6.9-4.4-9.6-8.6
		c3,3,7.2,5.6,11,6.2c-4.9-9-2.5-32.4-1.3-34.6c1.4-2.7,40.4-16.5,40.4-41.7c0,0-2.7-31.4-31-23.8c-30.3,8.2-39.5,61.4-38.9,77.3
		c-4,4-15.9,15.7-21,15.7c-6.1,0,17.6-70.6,17.6-76.7S663,742,652.4,742c-10.6,0-20.4,12.6-20.4,12.6s-9.2-14.2-15.6-14.2
		c-6.4,0-25.1,12.8-25.1,12.8s-1.4-7-3.3-7.8s-13.7-6.7-20.1-6.7c-5.5,0-14.8,62-17.2,86.4c-4,3.6-8.1,7.1-12.3,10.1
		c-6.7,5.6-15.4,10.9-24.3,11.1c-5.3-0.2-8.2-1.7-11.9-4.6c4.2,2.6,8.2,3.5,12.2,3.1c-11.3-4.4,20.3-77.9,19.6-90.1
		c-0.7-12.5-13-26.4-20-26c-6.5,0.4-22.6,43.7-23.1,81.7c-3.5,3.9-7.4,7.9-11.5,11.9c-14.8,16-31.1,28.6-52.3,23
		c-4.3-1.4-5.2-2.1-7.8-3.7c6.4,3.3,12.4,4.1,19.2,3c-5.9-11.9,21.8-103,33.5-146.8c13.5,1.2,28.3,2.5,43.2,3.8
		c0.7-2.3,1.5-4.7,2.5-7.1c-16.1-1.7-30.2-3.9-43.3-6c1.7-6.8,2.6-11.5,2.5-13.3c-0.7-12.5-13-26.4-20-26
		c-2.2,0.1-7.4,12.8-13.5,31.3c6.7,2,14.1,4.3,23.5,7.1c-36.5-5.9-53-8.9-79-7.7c-65.8,3.1-88.7,50.1-88.2,61.1
		c1,21.8,20.7,35.9,26.8,35.6c6.1-0.3,7.9-9.9,7.9-9.9c14.7-49.5,41.4-73.5,78.1-73.5c4,0,13.4,0.6,26.2,1.7
		c-12.8,41.8-27.3,100.7-27.3,125.2c0,41.1,25.1,39.3,30.7,39.3c9.1,0,32.5-17,49.4-33.7c3.8,33.3,20.7,32.9,25.9,32.9
		c6.5,0,20.3-8.7,33.8-19.8c4.4,7.6,18.1,10.6,23.2,10.6c6.1,0,14.5-75.9,15.9-79c1.1-2.4,8.1-11.1,14.4-14.5
		c4.2-3.5,9.1-5.8,15.2-5.5c-4,0.8-7.1,2.5-9.6,4.8c3.4,7.8-17.1,74.1-17.1,79.3c0,5.6,17.3,20.6,23.2,20.6c5.9,0,13.4-66.7,23.4-87
		c0,0,3.7-5,8.2-8.4c4.5-4.6,10.2-8,17.6-7.7c-4,0.8-7.2,2.5-9.7,4.9c4.5,4.2-17.1,58.7-17.1,88.5c0,0,6.7,13.9,19,13.9
		c9,0,24.5-17.2,32.1-26.3c2.2,12.5,7.9,24.1,26.9,26.1c28.4,3,48.5-27.3,48.5-34.7C765.1,824.2,764.2,806.9,758.4,805.6z
		 M741,757.8c-4.6,4.3-7.4,9.1-8.8,14.3c1.1,0.9,1.8,2.6,1.8,4.8c0,6.4-13.5,17.4-14.5,17.8C724.7,776.4,727.5,765.2,741,757.8z
		 M302.1,642.5C291.5,754.5,191,782.2,169.6,780.2c-7.8-0.7-33.6-10.4-28.7-62.1c4.9-51.8,40.2-66.7,40.2-66.7
		c21.4,2,12.2,39.7,12.2,39.7c-37.9,43.9-35.9,63.3-33.3,69.6c-6.1-5.6-7.4-21.4-0.5-43.3c-18.2,47.8,6.5,70.2,38.9,22
		c26.8-37.5,44.3-107.6,48.4-125.2c8.1-6.2,14.6-9.6,24.6-5.8c-15.4-8.2-27.9,4.8-42,12.1c-13.2,7.3-39.3,10.3-53.9,8.3
		c-37.5-3.5-38.3-38.2-38.3-38.2c8.4-88.6,105.3-152,139.1-148.8c33.8,3.2,26.6,48.9,26.6,48.9c-5.5,58.2-55.9,59.4-55.9,59.4
		c-25.1-4.3-4.8-18.7-4.8-18.7c41.4-21.8,44.1-60.5,43.9-72.5c4.9-0.2,8.2,6.4,9.5,11.1c1.7,6.2,0.8,12.5-0.2,18.7
		c0.9-3.2,1.6-5.9,2.2-9.2c2.1-12.8-2.9-21.4-8-24.1c-2.7-1.3-7-1-11.8,0.6c-40.8,11.1-93.8,124.1-85,134.7
		c9.4,11.3,61.8,1.9,61.8,1.9C296,596.3,303.6,626.4,302.1,642.5z M868.3,611.6c-2.5,0-4.2,3.6-4.2,3.6
		c-21.8,33.5-46.6,38.5-46.6,38.5c0-0.1,0-0.1,0-0.2c-8.9,2.7-17.4,2.2-23.8-4.4c6.8,5.8,15.2,5.3,23.5,1.7
		c-0.8-23.2,22.6-71.7,22.6-71.7c0-13.1-9.8-19.8-9.8-19.8c-5.5-2.3-11.7-8.1-17.1-15c7.7-15.2,12.9-30.3,12.9-43.3
		c0-21.8-18.1-36.8-28.7-36.8c-2.8,0-26.5,0.8-26.5,41c0,23.8,12.7,41,23.1,51.1c-15.2,23.6-39,51.8-52.3,65.8l0.2,0
		c-4.3,4.7-19.3,20.7-25.6,20.1c-6.5,1.5-12.8-0.9-16.2-6.1c3.4,3.3,7.9,4.3,12,3.2c-5.3-8.5-2.9-33-1.7-35.2
		c1.4-2.7,40.4-16.5,40.4-41.7c0,0-2.7-31.4-31-23.8c-30.2,8.1-40.8,62.7-38.5,81.4c-5.3,5-13,11.6-16.8,11.6
		c-6.1,0,17.6-70.6,17.6-76.7c0-6.1-22.3-21.5-32.9-21.5c-10.6,0-20.4,12.6-20.4,12.6s-9.2-14.2-15.6-14.2
		c-6.4,0-25.1,12.8-25.1,12.8s-1.4-7-3.3-7.8c-2-0.8-13.7-6.7-20.1-6.7c-5.4,0-14.4,59.5-17.1,84.9c-2.4,2.4-16.4,16.7-22,16.7
		c-6.1,0,17.6-70.6,17.6-76.7c0-6.1-22.3-21.5-32.9-21.5c-10.6,0-20.4,12.6-20.4,12.6s-9.2-14.2-15.6-14.2
		c-6.4,0-25.1,12.8-25.1,12.8s-1.4-7-3.3-7.8c-2-0.8-13.7-6.7-20.1-6.7c-6.5,0-18.2,86.2-17.8,95.3c-2.6,1.9-6.3,4.3-9.8,6.4
		c-9.5,8.8-21.2,6.9-26.1-0.7c3.9,3.7,8.8,4.4,13.3,2.8c-0.1-12.2,18.7-75.3,18.7-80.6c0-5.7-14.9-23.5-22-23.5
		c-4.9,0-14.9,52.8-24.9,82.1c-1.6,6.4-3.5,13.3-8.7,18.3c-6.9,6.8-15.7,5.8-19.8,0.5c3.9,3.3,10.2,3.7,14.8-1
		c-17.2-15.3,2.5-65.4,2.5-78.5c0-13.3-15.7-24.7-22.9-24.7c-7.2,0-18.6,83.1-18.6,96.7c0,17.8,30.1,26,40.4,26
		c7.2,0,14.9-15.7,14.9-15.7s10.3,17.2,23.8,17.2c9.8,0,21.8-11.7,27.7-18.1c5.6,5.8,16.8,8.1,21.3,8.1c6.1,0,14.5-75.9,15.9-79
		c1-2.3,7-9.7,12.9-13.6c4.3-4,9.6-6.7,16.2-6.4c-3.8,0.7-6.9,2.3-9.3,4.6c4.1,6.4-17,74.3-17,79.6c0,5.6,17.3,20.6,23.2,20.6
		c5.4,0,12.2-56.4,21.1-81.3l-0.1,0c0.1-0.1,0.1-0.2,0.2-0.4c0.7-2,1.5-3.8,2.2-5.3c0,0,2.8-3.9,6.5-7.1c4.9-5.5,10.8-9.4,18.8-9
		c-3.9,0.7-7,2.4-9.5,4.8c5.5,2.6-16.9,58.4-16.9,88.6c0,0,6.7,14,19,14c8.7,0,23.4-16,31.3-25.3c0.4,11.1,18.5,15.2,24.5,15.2
		c6.1,0,14.5-75.9,15.9-79c1-2.3,7.1-9.9,13.1-13.7c4.4-4,9.5-6.5,16-6.2c-3.8,0.7-6.9,2.3-9.3,4.6c4,6.4-17,74.3-17,79.6
		c0,5.6,17.3,20.6,23.2,20.6c5.4,0,12.2-56.4,21.1-81.3l-0.1,0c0.1-0.1,0.1-0.2,0.2-0.4c0.7-2,1.5-3.8,2.2-5.3c0,0,2.8-3.8,6.4-7
		c5-5.6,10.9-9.5,18.9-9.1c-3.9,0.7-7,2.5-9.5,4.8c5.4,2.6-16.9,58.4-16.9,88.6c0,0,6.7,14,19,14c7.7,0,20.3-12.7,28.4-22
		c2.8,10.7,9.2,20,25.9,21.8c29,3.1,77.8-62.2,93.4-86.9c2.9,2.2,4.9,3.4,4.9,3.4s-24.6,39.9-24.6,67.2s32.1,29.9,32.1,29.9
		c39.3,0,57.8-26.2,57.8-32.6C872.2,625,870.8,611.6,868.3,611.6z M732.3,551.4c-3.9,3.6-6.6,7.7-8.2,12.3c1.1,0.9,1.9,2.6,1.9,4.9
		c0,6.4-13.5,17.4-14.5,17.8C715.8,571.1,718.4,559,732.3,551.4z M799.8,522.4c-1.2-3-1.8-5.6-1.8-7.6c0-12.8,4.2-19.3,7-19.3
		c2.8,0,11.4,2.5,8.4,18.7c-1.1,5.8-3.4,12.2-6.5,18.9c1.3,3.9,3.4,7.6,5.8,11C805.3,537.3,801.8,530.9,799.8,522.4z M745.5,704.9
		c-26.1,5.8-78.5,4.8-119.3,4.4c-13.7-0.1-40.1-2-69.9-4.4c0.8-2.5,1.6-5.1,2.2-7.6c56.8,2.4,146,0,193.6-30.7
		c0,0,16.3-10.8,21.3-11C778.4,655.3,774.8,698.4,745.5,704.9z M520.7,711.9c-0.1-5.5,8.8-36.5,23-32.7c14.2,3.8,7.1,16.3,3.4,30.3
		C538.3,742,520.9,718.7,520.7,711.9z"/>
	<g>
		<path class="st5" d="M151.6,561.4c14.9-57.7,76.8-107.7,109.9-113.1C236.4,458.8,179.3,508.9,151.6,561.4z"/>
	</g>
	<g>
		<path class="st5" d="M255.3,537.8c0.5-0.9,1.7-3,2.5-3.8c0.9-0.8,1.6-2.1,2.8-3c1.1-0.9,2.3-1.8,3.4-2.8c1.3-0.7,2.6-1.4,3.8-2.1
			c1.2-0.8,2.7-1,3.8-1.5c1-0.4,3.4-0.8,4.4-0.9c-0.9,5.7-3.3,8-7.3,11.5c-6.3,3.3-5.8,2.5-8.7,3c-1.3,0.2-2.5-0.1-3.3-0.1
			C255.8,537.9,255.3,537.8,255.3,537.8z"/>
	</g>
	<g>
		<path class="st5" d="M154,704.4c-3-14.5,5.9-30.7,19.4-36C170,678.1,159.5,697.2,154,704.4z"/>
	</g>
	<g>
		<path class="st5" d="M209,757.1c4.1-3.8,45.2-38.5,48.6-41.1c-5.4,15-15.4,25.1-29,33.7c-3.3,2.1-6.7,3.4-9.6,4.6
			C216.1,755.6,212,756.5,209,757.1z"/>
	</g>
	<g>
		<path class="st5" d="M265.7,706.4c0.6-10.2,7.1-21.6,16.1-27.2C282.5,690.2,275.7,701.8,265.7,706.4z"/>
	</g>
	<g>
		<path class="st5" d="M331.5,540.3c8.1,2.8,11.5,13.7,6.2,20.5c-0.9-3.1-2.7-10.7-3.9-13.9C333.8,546.9,331.9,541.6,331.5,540.3z"
			/>
	</g>
	<g>
		<path class="st5" d="M434.1,538.9c7.4,2.6,8.2,12,5.7,15.9c-0.7,1-0.5,0.7-1.2,1.6C437.1,552.7,434.7,543.5,434.1,538.9z"/>
	</g>
	<g>
		<path class="st5" d="M528.4,550.9c0.8-0.1,1-0.2,1.9-0.1c1.1,0,3.1,0.8,4.1,1.7c2.2,2,2.9,3.3,3.5,6.2c0.2,1.2-0.1,3.4-0.6,4.4
			c-0.4,0.7-0.6,1-1.1,1.5c0,0-0.1-0.3-0.4-0.8c-0.1-0.2-0.7-1.4-0.9-1.8c-0.2-0.7-0.9-1.4-1.2-2.1c-0.3-0.8-0.8-1.5-1.3-2.2
			c-0.3-0.8-0.8-1.6-1.2-2.2c-0.5-0.6-0.8-1.5-1.2-2.1c-0.3-0.4-0.9-1.5-1.1-1.7C528.6,551.2,528.4,550.9,528.4,550.9z"/>
	</g>
	<g>
		<path class="st5" d="M311.4,609.7c3.8,5.8-0.2,12.3,2.4,17.4c0.6,1.1,1.3,2.4,2.1,3.4c0.6,0.7,1.9,2.7,2.5,3.7
			c-5.8-1.4-9.9-4.7-10.5-10.6C307.9,618,310.5,614.5,311.4,609.7z"/>
	</g>
	<g>
		<path class="st5" d="M415.2,608.8c0.2,0.8,2.6,13.6,3.4,15.7c0.2,0.5,0.7,2.8,0.8,3.3c0,0-0.3-0.1-1-0.3c-3.6-1.9-5-4.1-6.2-8
			C411.7,615.1,412.1,611.9,415.2,608.8z"/>
	</g>
	<g>
		<path class="st5" d="M504.2,624c2.1,9.3,6.5,15,16.3,18.7C509.6,647.2,498.2,634.1,504.2,624z"/>
	</g>
	<g>
		<path class="st5" d="M670.1,757.8c7.4-1.2,12.3,8.5,7.8,13.6C676.4,768.4,672.6,761.6,670.1,757.8z"/>
	</g>
	<g>
		<path class="st5" d="M646,830.9c2.1,9.5,6.8,15.1,16.3,18.7C651.4,854.2,640,841,646,830.9z"/>
	</g>
	<g>
		<path class="st5" d="M572.7,537.6c1.1,0.4,0.7,0.2,1.8,0.8c1,0.6,2.7,2.2,3.3,3.3c2.5,4.6,2.7,9.5-0.7,13.4
			C575.8,551.4,573.3,542.2,572.7,537.6z"/>
	</g>
	<g>
		<path class="st5" d="M667,549.6c0,0,0.3-0.1,0.9-0.1c0.3,0,0.6,0,1,0c5.5,0.2,10.5,8.6,5.9,13.7c0,0-0.1-0.3-0.4-0.8
			c-0.1-0.2-0.2-0.5-0.4-0.8c-0.2-0.3-0.3-0.6-0.5-1c-0.2-0.7-0.9-1.4-1.2-2.1c-0.3-0.8-0.8-1.5-1.3-2.2c-0.3-0.8-0.8-1.6-1.2-2.2
			c-0.5-0.6-0.8-1.5-1.2-2.1c-0.2-0.3-0.4-0.6-0.6-0.9c-0.2-0.3-0.3-0.6-0.5-0.8C667.2,549.9,667,549.6,667,549.6z"/>
	</g>
	<g>
		<path class="st5" d="M553.8,607.6c0.2,1.1,1.2,6.2,1.2,6.3c0.3,2.5,2.4,9.9,3,12.7C550.6,623.9,547.9,613.3,553.8,607.6z"/>
	</g>
	<g>
		<path class="st5" d="M642.8,622.7c2.1,9.4,6.6,15,16.3,18.7C648.3,645.9,636.8,632.8,642.8,622.7z"/>
	</g>
	<g>
		<path class="st5" d="M695.2,573.5c9.1-26.2,27.2-32.6,39.1-28C714.7,546.7,705.7,562.6,695.2,573.5z"/>
	</g>
	<g>
		<path class="st5" d="M802.1,472c-15.2,5.1-23.1,16.8-20.6,33.6C770.7,490.6,784,469.1,802.1,472z"/>
	</g>
	<g>
		<path class="st5" d="M794.9,610.4c-3.7,24.9-2.6,17.4-2.9,35.7C785.4,636.1,785.6,620.5,794.9,610.4z"/>
	</g>
	<g>
		<path class="st5" d="M309.2,737.8c5-18.9,20.3-35.7,41.6-41.1C332,710.2,325.5,715.7,309.2,737.8z"/>
	</g>
	<g>
		<path class="st5" d="M710.6,700.7c17.1-3.6,35.8-2.8,49.8-19.2C756.3,694.4,740.3,706.3,710.6,700.7z"/>
	</g>
	<g>
		<path class="st5" d="M532.4,693.6c-2-8,9.6-14.3,15.2-8.4C542.2,686.6,536.8,689.5,532.4,693.6z"/>
	</g>
	<g>
		<path class="st5" d="M510.4,750.2c-0.8,11.3-5.7,28.9-10.9,39.1C498.6,776.3,503.1,760.6,510.4,750.2z"/>
	</g>
	<g>
		<path class="st5" d="M435.5,741.4c-0.3,12.1-4.9,29.2-10.8,40C424.3,768.8,428.7,752.3,435.5,741.4z"/>
	</g>
	<g>
		<path class="st5" d="M423.6,790.9c1.4,3.1,1.1,4.6,0.8,7.8c-1.8,5-1,2.6-2.2,4.7c-0.4,0.6-1.3,1.5-1.9,1.9
			C418,800.4,419.4,794.3,423.6,790.9z"/>
	</g>
	<g>
		<path class="st5" d="M567.9,758.4c1.7,13-1.2,30-5.8,40.3C560.6,787.1,562.8,770.1,567.9,758.4z"/>
	</g>
	<g>
		<path class="st5" d="M707.7,776c2.9-15.1,17.8-25.9,33-23.9C725.8,758.2,719.5,762.2,707.7,776z"/>
	</g>
	<g>
		<path class="st6" d="M642.3,461.1c-2.6,0.5-16.7,2-32.2,3.6c-1,0.1-1.9-0.7-1.8-1.7c0.2-4.3,1.5-12,1.6-15.9
			c0-0.8,0.6-1.4,1.4-1.6l24.5-3.8c0.8-0.1,1.6,0.4,1.9,1.1c2.7,9.1,1.7,6.6,4.7,11.8c0.3,0.6,0.2,1.4-0.6,1.9c0,0,0,0,0,0
			c0.9,0.9,1.5,1.5,2.2,2.2l1.8,4.9c0.2,0.4,0,0.9-0.3,1.2c1.8,0,30.2,0.2,44,34.6c0,0,1,3.1,2.4,3.1c0,0,1.1,0.1,2.5-3.3
			c1.4-3.3,8.1-23.6,17.7-30.9c0-0.6-0.1-1.1-0.1-1.4c-0.4-4.1-11-20.9-15.2-27.3c-18.3-4-47.2-2.2-56-1.3
			c-22.8,2.4-74.3,13.2-79.7,14.3c-1,2.3-5.9,13.9-5.9,21.3l89-9C643.6,464.8,643.7,464.8,642.3,461.1z M660.4,464.9
			c13.9-1.8,34.8-2,48.6,1.4C692.6,464.6,681.5,465,660.4,464.9z M680.2,439.4c7.9,0.4,13.4,1.4,15.8,1.9c0.5,0.1,0.9,0.4,1.1,0.9
			c1.6,2.8,6.5,11.6,9.3,16.5c0.7,1.3,0.7,2-0.9,1.8c-1.8-0.2-3.6-0.4-5.6-0.5c0.1,1.8-2.7,1.6-2.4-0.2c-3.8-0.2-7.8-0.4-11.6-0.4
			c-0.8,0-1.4-0.5-1.6-1.2l-6-16.6C678,440.5,678.9,439.3,680.2,439.4z M647.2,439.7c11.1-1.1,19.7-0.7,27-0.6
			c0.8,0,1.4,0.5,1.6,1.2l6,16.8c0.4,1.1-0.5,2.3-1.6,2.3c-3.2,0-6.2,0.1-9.1,0.3c0.2,0.8-0.4,1.6-1.3,1.6c-0.8,0-1.4-0.7-1.3-1.5
			c-6.9,0.4-12.4,0.9-14.9,1.1c-0.8,0.1-1.6-0.4-1.8-1.2l-6.1-17.8C645.4,441,646.1,439.9,647.2,439.7z M582.8,452.2
			c0-0.8,0.6-1.4,1.4-1.6l20.1-3.6c1-0.2,2,0.6,1.9,1.7c-0.2,4.3-0.9,11.4-1,15.2c0,0.8-0.7,1.5-1.5,1.6c-5,0.5-15.7,1.7-20.4,2.2
			c-1,0.1-1.9-0.7-1.8-1.7C581.7,461.8,582.7,455.9,582.8,452.2z M558.4,468.5l3.4-13.1c0.4-1.4,0.3-1,16.4-3.9c1-0.2,2,0.7,1.9,1.7
			c-0.2,4.1-1.3,10.1-1.6,13.8c-0.1,0.8-0.7,1.5-1.5,1.5c-6.7,0.7-14,1.7-16.9,2C559,470.7,558.1,469.6,558.4,468.5z M557.3,472.6
			c23.6-3,57.6-6.4,73.3-7.7C615.1,467,581,470.7,557.3,472.6z M557.3,471.5c23.3-3,57.3-6.4,73.3-7.7
			C611.9,466.3,578.3,469.8,557.3,471.5z"/>
		<path class="st6" d="M598.4,449c-3.4,0.4-11.3,1.9-14.6,2.5c-0.3,2.2-1,8.6-1.4,13.5c0.8-4.8,1.6-11,1.8-13
			C591.5,450.6,592.9,450.2,598.4,449z"/>
		<path class="st6" d="M577,452.6c-3.4,0.4-10.8,1.7-14.2,2.3c-0.9,3.4-2.4,9.3-3.4,13.7c1.6-4.9,3.4-11.5,3.8-13.2
			C570.5,454.1,571.9,453.8,577,452.6z"/>
		<path class="st6" d="M645.5,504.4c0.1,0.2,0.3,0.4,0.4,0.6c0.4-10,0.4-26.1-0.2-36.7C645.1,478.8,645.1,494.4,645.5,504.4z"/>
		<path class="st6" d="M698.7,460L698.7,460c-2.2-3.6-1.6-2.6-5.3-8.3c-2.9-2-5.1-3.2-6.5-3.8l0,0.1c1.2,1.1,3.3,2.6,6,4.3
			C696.9,457.6,696.1,456.6,698.7,460z"/>
		<path class="st6" d="M669.8,460L669.8,460c-2.5-4.1-1.8-2.9-5.8-9.1c-3.1-2.1-5.5-3.5-7.2-4.2l0,0.1c1.3,1.2,3.6,2.9,6.6,4.7
			C667.7,457.2,666.8,456,669.8,460z"/>
		<path class="st6" d="M674.4,440.3c0.6,1.5,1.3,2.9,2,4.3c-0.5-1.7-1.1-3.3-1.6-4.9c-1.8,0-5.4,0-8.3,0.3
			C668.9,440.3,672,440.4,674.4,440.3z"/>
		<path class="st6" d="M555.7,475.9c21.6-1.9,52.8-5.2,73.3-7.7C608.9,470,577.5,473.2,555.7,475.9z"/>
		<path class="st6" d="M555,506.7c-0.1,0-2.2-0.1-2.3-0.2c-0.9,0-1.6,0.8-1.6,1.7v3.6c0,0.9,0.8,1.7,1.7,1.7c0.1,0,2.2,0.1,2.3,0.2
			c0.9,0,1.6-0.7,1.6-1.6c0-0.1,0,0.6,0-3.6C556.7,507.4,555.9,506.7,555,506.7z"/>
		<path class="st6" d="M609.6,460.1c0.8-4.7,1.5-10.5,1.8-13c7.4-1.4,8.9-1.7,14.1-2.8c-3.6,0.4-11.1,1.7-14.6,2.3
			C610.7,448.8,609.9,455.2,609.6,460.1z"/>
		<path class="st6" d="M630.6,446.6c4.7-2.7,4.4-2.6,4.8-2.6c-0.4-0.1-0.8-0.1-1.1,0.1l-4.3,2.4c-0.6,0.4-0.9,1.2-0.5,1.8
			c6.1,10.7,5.9,10.9,7.1,10.7c-0.6-0.2-0.2,0.2-6.4-10.6C629.7,447.8,629.9,447,630.6,446.6z"/>
		<path class="st6" d="M642.9,459.2c0.9,2.2,1.5,3.6,2,4.5c-0.3-1-0.7-2.5-1.5-4.8c-1.6-1.7-5.4-5.4-7.2-6.8
			C636.3,452.4,639.1,455.6,642.9,459.2z"/>
		<path class="st6" d="M698.6,446.2c-0.9-1.7-2.1-3.4-2.6-4.1c-1.5-0.3-5.2-1-8.3-1.2c2.5,0.7,5.5,1.3,8,1.7
			C696.6,443.8,697.5,445.1,698.6,446.2z"/>
		<path class="st6" d="M665.9,498.1c2.3,4.9,9.7,3.2,9.7-2.2c0-5.4-7.4-7.1-9.7-2.2c2.3-4,8.4-2.4,8.4,2.2
			C674.3,500.5,668.1,502.1,665.9,498.1z"/>
		<path class="st6" d="M694.5,503.2c-1,2.4-2,2.5-2,2.5c-3.4-0.1-2.6-4.5-10.4-16c-3.3-4.9-7.4-9.5-12-13.4
			c-6-4.9-13.8-9.2-21.3-9.9c12.1,1.7,28.6,12.2,40.1,37.3c0.8,1.5,2,2.8,3.7,2.8c0,0,0.1,0,0.3,0c1.9-0.5,2.8-4,4.1-7.3
			c2.7-7.4,8.9-23.5,15.2-28.2C703.7,476.7,695.9,499.9,694.5,503.2z"/>
		<path class="st6" d="M711,493.9c-1.1-4.5-4.8-3-4.8,2c0,5,3.6,6.5,4.8,2c-1.1,3.7-4.1,2.3-4.1-2
			C706.9,491.6,709.9,490.2,711,493.9z"/>
		<path class="st6" d="M708.7,489.3c-1.9,0-3.5,2.9-3.5,6.5c0,3.6,1.6,6.5,3.5,6.5c1.9,0,3.5-2.9,3.5-6.5
			C712.2,492.3,710.6,489.3,708.7,489.3z M708.7,501.1c-1.5,0-2.8-2.3-2.8-5.2c0-2.9,1.3-5.2,2.8-5.2c1.5,0,2.8,2.3,2.8,5.2
			C711.5,498.8,710.3,501.1,708.7,501.1z"/>
		<path class="st6" d="M710.4,485.8c0,1.8,0.8,3.3,1.8,3.3c1.5,0,2.4-3.5,1.3-5.6C712.4,481.3,710.4,482.8,710.4,485.8z
			 M713.5,484.9c0.3,1.7-0.3,3.6-1.3,3.6c-0.8,0-1.4-1.2-1.4-2.7C710.8,482.8,713,482.1,713.5,484.9z"/>
		<path class="st6" d="M713.3,486.8c-0.6,1.9-2.1,1.2-2.1-1c0-2.2,1.6-2.9,2.1-1c-0.6-2.3-2.4-1.5-2.4,1
			C710.9,488.3,712.8,489.1,713.3,486.8z"/>
		<path class="st6" d="M670.5,503c3.9,0,7.1-3.2,7.1-7.1c0-3.9-3.2-7.1-7.1-7.1c-3.9,0-7.1,3.2-7.1,7.1
			C663.4,499.8,666.6,503,670.5,503z M670.5,490.2c3.1,0,5.7,2.5,5.7,5.7c0,3.1-2.5,5.7-5.7,5.7c-3.1,0-5.7-2.5-5.7-5.7
			C664.8,492.7,667.4,490.2,670.5,490.2z"/>
		<path class="st6" d="M711.7,453.9c-0.4,0.7-1.4,2.4-2,3.5c0,0,0.2,0.3,0.2,0.3C710.9,455.7,711.6,454.1,711.7,453.9z"/>
		<path class="st6" d="M640.3,433.4l1,3.1c9.6-0.9,37.6-2.5,55.7,1.4c-2.2-3.4-6.8-5.2-13.7-5.6c-13.9-0.7-28.1-1.8-44.7-0.6
			c-0.9,0.1-33.9,4.1-69.4,13.2c-7.2,1.9-7.7,4.1-8.3,5.9c6.2-1.3,56-11.7,79-14.3L640.3,433.4z M693.7,436.7
			c-13-2.3-27.6-2.2-47.3-1.9C659.6,433.1,680.7,432.8,693.7,436.7z M563.2,449c20.3-5.5,48.6-11,71.6-13.2
			C610.7,439.9,614.8,439,563.2,449z"/>
		<path class="st6" d="M611.6,472c-0.8,0.1-0.7,1.1-0.7,2.4c0,0.4,0.3,0.8,0.7,0.7l5.7-0.5c0.8-0.1,0.6-1,0.6-2.5
			C618,471.2,617.2,471.5,611.6,472z M617.1,472.9c0,0-5.4,0.5-5.4,0.5c-0.6,0-0.6-0.9,0-0.9l5.4-0.5
			C617.6,471.9,617.7,472.8,617.1,472.9z"/>
		<path class="st6" d="M667,484.9c0-2-1.6-3.6-3.6-3.6c-2,0-3.6,1.6-3.6,3.6c0,2,1.6,3.6,3.6,3.6C665.4,488.5,667,486.9,667,484.9z
			 M660.6,484.9c0-3.8,5.8-3.8,5.8,0C666.3,488.7,660.6,488.7,660.6,484.9z"/>
		<path class="st6" d="M661.1,483.8c1.1-2,4.3-1.2,4.3,1.1c0,2.4-3.1,3.2-4.3,1.1c1.2,2.5,4.9,1.6,4.9-1.1
			C666,482.1,662.3,481.3,661.1,483.8z"/>
		<path class="st6" d="M717.2,511.7c-1.9,0-64.4,0.7-68.2,0.8c0,0-8.5-0.8-8.5-0.8c-2.3,0-2.6,2.3-2.4,4.8c0.1,1.8,0.6,3.1,2.4,3.1
			c0.2,0-0.5-0.1,8.1,0.9c0.3-2.1,0.3-1.8,0.9-6.4c0.2,1.5,0.3,2.3,0.3,2.7c0,0,0,0,0,0c0,0,0,0,0,0.1c0,0,0,0,0,0.1
			c0,0,0,0.1,0,0.1c0,0.1,0,0.1,0,0.1c0,0,0,0,0,0c0,0,0,0,0,0c0.1,0.5,0.2,1.5,0.4,3.4c2.1,0,64-0.9,67-0.9c1.2,0,2.5-0.5,2.5-3.9
			C719.7,512.2,718.5,511.7,717.2,511.7z"/>
		<path class="st6" d="M584.1,511.9c5.1,0.3,18.4,0.8,27.9,0.6C601.2,511.7,587.6,511.8,584.1,511.9z"/>
		<path class="st6" d="M622.6,514.1c-1.2,5,1.2,10.4,4.5,10.3c2.7-0.1,4.7-3.8,4.4-8.2C630.9,508.4,624.3,506.9,622.6,514.1z
			 M623,516.2c0.5-7.5,7.1-7.4,7.9-0.1C628.2,514.4,626.5,518.2,623,516.2z"/>
		<path class="st6" d="M626.9,499.3c-12-0.8-13,12.1-12.5,13.7c-0.1-0.8,0.9-8.9,6.9-12.1C623.6,499.6,626.1,499.4,626.9,499.3z"/>
		<path class="st6" d="M619.3,511.7c-2.3,8.3,1.6,18,7.4,17.4c4.2-0.4,7.3-6.3,6.9-12.7C632.9,503.8,622.3,500.5,619.3,511.7z
			 M631.9,522.3c-3,10.4-12.5,7.3-13.3-4.5c-0.2-3.4,0.5-7,2.4-9.7C626.6,500.2,635.2,510.5,631.9,522.3z"/>
		<path class="st6" d="M649.8,516.9C649.8,517,649.8,517,649.8,516.9C649.8,517,649.8,517,649.8,516.9
			C649.8,517,649.8,517,649.8,516.9z"/>
		<path class="st6" d="M649.8,516.9C649.8,516.9,649.8,516.9,649.8,516.9C649.8,516.9,649.8,516.9,649.8,516.9
			C649.8,516.9,649.8,516.9,649.8,516.9z"/>
		<path class="st6" d="M636.2,508.9c0.3-10.5,0.7-12.4-1.4-14.1c-1.6-1.3-1.2-1.3-26.9,0c0.3-7.8,0.4-14.5,0.4-20.3
			c-0.9,10.5-1.3,19.6-1.4,21.4c12.6-0.4,25.2-1,25.2-1c2.1,0.1,3.4,1.4,3.5,3.9c0.1,7.7,0.1,6.8,0.2,10.6c5.7,0.3,3,0.2,6.2,0.3
			C638.6,509.1,641.5,509.5,636.2,508.9z"/>
		<path class="st6" d="M568.6,519.6c2.3-0.1,3.6-3.8,2.9-7.1c-1.3-5.7-6.5-4.5-6.4,1.6C565.1,516.5,566.4,519.7,568.6,519.6z
			 M571.2,513.6c-2-1.2-3.2,1.5-5.7,0.1C565.8,508.2,570.6,508.3,571.2,513.6z"/>
		<path class="st6" d="M567.4,505.4c-0.1,0-0.1,0-0.1,0c-3.7,0.6-5.2,5.5-4.8,10c-0.7-6.7,3.6-11.8,7.2-8.4
			c4.5,4.1,2.8,16.3-2.3,15.5c-3-0.5-4.6-4.1-4.9-6.9c0.4,3.8,2.3,7.2,5.4,7.4c-0.1,0,0.5,0,0.6-0.1
			C575.7,521.2,574.5,505.5,567.4,505.4z"/>
		<path class="st6" d="M578,511.3c-1-0.6-1-1.3-1.1-2.2c-1-5-3.7-8.2-8.5-6.8c7.6-0.9,7.6,7,8.4,8.4c0.7,1.2,2.6,1.5,3.9,1.1
			C580,511.9,578.8,511.8,578,511.3z"/>
		<path class="st0" d="M708.7,490.7c-3.7,0-3.7,10.4,0,10.4c1.5,0,2.8-2.3,2.8-5.2C711.5,493,710.3,490.7,708.7,490.7z M711,497.9
			c-1.1,4.5-4.8,3-4.8-2c0-5,3.6-6.5,4.8-2c-1.1-3.7-4.1-2.2-4.1,2C706.9,500.2,709.9,501.6,711,497.9z"/>
		<path class="st0" d="M670.5,501.5c3.1,0,5.7-2.5,5.7-5.7c0-3.1-2.5-5.7-5.7-5.7c-3.1,0-5.7,2.5-5.7,5.7
			C664.8,499,667.4,501.5,670.5,501.5z M665.9,493.7c2.3-4.9,9.7-3.2,9.7,2.2c0,5.4-7.4,7.1-9.7,2.2c2.3,4,8.4,2.4,8.4-2.2
			C674.3,491.2,668.1,489.6,665.9,493.7z"/>
		<path class="st0" d="M660.6,484.9c0,3.8,5.8,3.8,5.8,0C666.3,481.1,660.6,481.1,660.6,484.9z M661.1,486c1.1,2,4.3,1.2,4.3-1.1
			c0-2.4-3.1-3.2-4.3-1.1c1.2-2.5,4.9-1.6,4.9,1.1C666,487.6,662.3,488.5,661.1,486z"/>
		<path class="st0" d="M712.2,488.4c1,0,1.7-1.9,1.3-3.6c-0.5-2.8-2.7-2-2.7,0.9C710.8,487.2,711.4,488.4,712.2,488.4z M713.3,484.8
			c-0.6-1.8-2.1-1.2-2.1,1c0,2.2,1.5,2.9,2.1,1c-0.6,2.3-2.4,1.5-2.4-1C710.9,483.2,712.8,482.5,713.3,484.8z"/>
		<path class="st0" d="M660.4,464.9c21.1,0,32.2-0.4,48.6,1.4C695.2,462.9,674.3,463.1,660.4,464.9z"/>
		<path class="st0" d="M651.9,459.8c0.3,0.8,1,1.3,1.8,1.2c2.5-0.3,8-0.8,14.9-1.1c-0.1,0.8,0.5,1.5,1.3,1.5c0.8,0,1.5-0.8,1.3-1.6
			c2.9-0.1,6-0.2,9.1-0.3c1.2,0,2-1.2,1.6-2.3l-6-16.8c-0.2-0.7-0.9-1.2-1.6-1.2c-7.3-0.1-15.9-0.6-27,0.6c-1.1,0.1-1.8,1.2-1.5,2.3
			L651.9,459.8z M674.8,439.8c0.6,1.6,1.2,3.2,1.6,4.9c-0.7-1.4-1.4-2.9-2-4.3c-2.4,0-5.5,0-7.9-0.3
			C669.3,439.8,672.9,439.8,674.8,439.8z M656.8,446.7c1.6,0.7,4.1,2,7.2,4.2c4.1,6.2,3.3,5.1,5.9,9.1l-0.1,0.1
			c-3-3.9-2.1-2.7-6.4-8.5C660.4,449.6,658.1,447.9,656.8,446.7L656.8,446.7z"/>
		<path class="st0" d="M684.4,458.2c0.2,0.7,0.9,1.2,1.6,1.2c3.8,0,7.8,0.2,11.6,0.4c-0.4,1.8,2.5,2,2.4,0.2c2,0.1,3.9,0.3,5.6,0.5
			c1.6,0.2,1.6-0.6,0.9-1.8c-2.8-4.9-7.8-13.7-9.3-16.5c-0.2-0.4-0.7-0.8-1.1-0.9c-2.4-0.5-8-1.5-15.8-1.9c-1.2-0.1-2.1,1.1-1.8,2.3
			L684.4,458.2z M696,442.1c0.5,0.7,1.6,2.4,2.6,4.1c-1.1-1.2-2-2.4-2.9-3.6c-2.5-0.4-5.5-1-8-1.7
			C690.8,441.1,694.5,441.9,696,442.1z M686.9,447.9c1.4,0.6,3.6,1.8,6.5,3.8c3.7,5.7,3.1,4.7,5.4,8.3l-0.1,0
			c-2.6-3.4-1.8-2.4-5.8-7.8C690.1,450.6,688,449.1,686.9,447.9L686.9,447.9z"/>
		<path class="st0" d="M560.2,470.6c2.9-0.3,10.2-1.4,16.9-2c0.8-0.1,1.4-0.7,1.5-1.5c0.2-3.7,1.3-9.7,1.6-13.8
			c0.1-1.1-0.9-1.9-1.9-1.7l-15.1,2.7c-1.4,0.2-1.1,0.3-4.7,14.3C558.1,469.6,559,470.7,560.2,470.6z M562.8,455
			c3.4-0.6,10.8-1.9,14.2-2.3c-5.1,1.1-6.5,1.4-13.8,2.8c-0.5,1.7-2.2,8.3-3.8,13.2C560.4,464.2,561.9,458.4,562.8,455z"/>
		<path class="st0" d="M583.3,467.7c4.7-0.5,15.4-1.7,20.4-2.2c0.8-0.1,1.4-0.8,1.5-1.6c0.2-3.8,0.9-10.9,1-15.2
			c0-1-0.9-1.9-1.9-1.7l-20.1,3.6c-0.8,0.1-1.3,0.8-1.4,1.6c-0.1,3.7-1.2,9.6-1.4,13.8C581.4,467,582.3,467.8,583.3,467.7z
			 M583.8,451.5c3.4-0.6,11.2-2.1,14.6-2.5c-5.5,1.2-6.9,1.6-14.1,3c-0.2,2-1,8.3-1.8,13C582.8,460.1,583.6,453.7,583.8,451.5z"/>
		<path class="st0" d="M617,472l-5.4,0.5c-0.6,0.1-0.5,0.9,0,0.9c0,0,5.4-0.5,5.4-0.5C617.7,472.8,617.6,471.9,617,472z"/>
		<path class="st0" d="M630.6,463.9c-16.1,1.3-50,4.7-73.3,7.7C578.3,469.8,611.9,466.3,630.6,463.9z"/>
		<path class="st0" d="M630.6,465c-15.8,1.3-49.8,4.6-73.3,7.7C581,470.7,615.1,467,630.6,465z"/>
		<path class="st0" d="M621,508.1c-1.9,2.7-2.5,6.3-2.4,9.7c0.8,11.7,10.3,14.8,13.3,4.5C635.2,510.5,626.6,500.2,621,508.1z
			 M627.1,524.5c-3.3,0.1-5.6-5.3-4.5-10.3c1.7-7.2,8.3-5.8,8.8,2.1C631.8,520.7,629.8,524.4,627.1,524.5z"/>
		<path class="st0" d="M623,516.2c3.5,2,5.2-1.8,7.9-0.1C630.1,508.8,623.5,508.7,623,516.2z"/>
		<path class="st0" d="M649.8,517C649.8,517,649.8,517,649.8,517c0,0.1,0,0.1,0,0.1c0,0,0,0,0,0C649.9,517.1,649.9,517,649.8,517z"
			/>
		<path class="st0" d="M649.8,516.8C649.8,516.8,649.8,516.8,649.8,516.8C649.8,516.9,649.8,516.9,649.8,516.8
			C649.8,516.9,649.8,516.8,649.8,516.8z"/>
		<path class="st0" d="M649.8,516.9C649.8,516.9,649.8,516.9,649.8,516.9C649.8,517,649.8,517,649.8,516.9
			C649.8,516.9,649.8,516.9,649.8,516.9z"/>
		<path class="st0" d="M649.8,516.7C649.8,516.7,649.8,516.7,649.8,516.7C649.8,516.7,649.8,516.7,649.8,516.7z"/>
		<path class="st0" d="M715.4,509.9c-1.4-46.9-1.1-43.3-3.9-49c0.4-0.2,0.2-0.1,3.3-10.6c0.2-0.6,0.1-1.5-0.3-1.8
			c-2.4-2.7-2.2-2.7-2.6-2.6h-0.8c-0.2,0-0.3,0.3-3,9c-3.6-6.3-7.9-13-9.5-15.4c0.4-0.5,0.5-1.2,0.2-1.8c-2.4-4.3-7.6-6.7-15.6-7.1
			c-10-0.5-30.4-2-45-0.5c-0.3,0-33.7,4-69.7,13.3c-8.3,2.1-8.8,5-9.8,7.8c-0.1,0.4,0,1,0.3,1.4c-1.3,3.1-6,14.3-6,21.8v30.6
			c-2.6-0.2-4,1.6-4,3.5v3.6c0,1.9,1.6,3.5,3.5,3.5c1.9,0.1,3.9,0.6,5.3-1.4l1.9,0.1c0,7.4,4,13.4,8.8,13.9l0,0
			c1,0.2,6.2,0.2,7.9-0.2l0,0c4.4-0.8,7.7-6.2,7.8-12.8l18.3,0.6c1,4.5,3.3,7.8,6.2,8.3c1.8,0.5,5,0.4,6.5-0.1l0,0
			c0.2,0,0.4-0.1,0.6-0.1c1.7,6.9,6,11.9,11.1,12.5v0c1.4,0.3,8.6,0.4,11-0.2v0c5.2-0.8,9.3-6.2,10.6-13.4c0.6,0.1-2.3,0.1,35-0.4
			c1.6,6,5.4,10.4,9.7,10.7c2.5,0.4,6.9,0.1,8.9-0.7l0,0c3.9-0.8,6.8-4.9,7.8-10.4l7.3-0.1c2,0,4.3-1,4.3-5.8
			C721.5,509.2,717.5,509.9,715.4,509.9z M713.5,483.5c1.1,2.2,0.2,5.6-1.3,5.6c-1,0-1.8-1.5-1.8-3.3
			C710.4,482.8,712.4,481.3,713.5,483.5z M712.2,495.9c0,3.6-1.6,6.5-3.5,6.5c-1.9,0-3.5-2.9-3.5-6.5c0-3.6,1.6-6.5,3.5-6.5
			C710.6,489.3,712.2,492.3,712.2,495.9z M696.9,499.2c-1.2,3.4-2.2,6.8-4.1,7.3c-0.2,0-0.3,0-0.3,0c-1.7-0.1-2.9-1.3-3.7-2.8
			c-4.7-10.2-10.5-19.5-19.1-26.9c-5.8-5-13.5-9.4-20.9-10.4c13,1.2,25.6,11.8,33.3,23.3c7.8,11.5,7,15.9,10.4,16c0,0,1-0.1,2-2.5
			c1.4-3.3,9.2-26.5,17.6-32.2C705.8,475.7,699.6,491.8,696.9,499.2z M670.5,488.8c3.9,0,7.1,3.2,7.1,7.1c0,3.9-3.2,7.1-7.1,7.1
			c-3.9,0-7.1-3.2-7.1-7.1C663.4,492,666.6,488.8,670.5,488.8z M659.8,484.9c0-2,1.6-3.6,3.6-3.6c2,0,3.6,1.6,3.6,3.6
			c0,2-1.6,3.6-3.6,3.6C661.5,488.5,659.8,486.9,659.8,484.9z M711.7,453.9c-0.1,0.2-0.8,1.8-1.8,3.8c0,0-0.2-0.3-0.2-0.3
			C710.3,456.3,711.2,454.6,711.7,453.9z M569.1,445c35.6-9.2,68.5-13.1,69.4-13.2c16.6-1.3,30.8-0.2,44.7,0.6
			c6.9,0.4,11.5,2.3,13.7,5.6c-18-3.9-46-2.3-55.7-1.4l-1-3.1l-0.4,3.3c-23,2.5-72.8,12.9-79,14.3
			C561.4,449.1,561.9,446.8,569.1,445z M561,452.8c5.4-1.1,56.9-11.9,79.7-14.3c8.8-0.9,37.7-2.6,56,1.3
			c4.3,6.5,14.8,23.2,15.2,27.3c0,0.3,0.1,0.8,0.1,1.4c-9.6,7.2-16.4,27.6-17.7,30.9c-1.4,3.4-2.5,3.3-2.5,3.3
			c-1.3,0-2.4-3.1-2.4-3.1c-13.8-34.3-42.2-34.6-44-34.6c0.3-0.3,0.4-0.8,0.3-1.2l-1.8-4.9c-0.6-0.6-1.2-1.2-2.2-2.2c0,0,0,0,0,0
			c0.9-0.5,1-1.3,0.6-1.9c-3-5.2-2-2.7-4.7-11.8c-0.2-0.8-1-1.3-1.9-1.1l-24.5,3.8c-0.8,0.1-1.3,0.8-1.4,1.6
			c-0.1,3.9-1.4,11.6-1.6,15.9c0,1,0.8,1.8,1.8,1.7c15.5-1.6,29.5-3.2,32.2-3.6c1.4,3.7,1.3,3.7,1.7,3.9l-89,9
			C555.1,466.7,560,455.1,561,452.8z M645.8,505.1c-0.1-0.2-0.3-0.4-0.4-0.6c-0.4-10.1-0.4-25.6,0.2-36
			C646.2,479,646.2,495.1,645.8,505.1z M630.1,448.5c6.2,10.8,5.8,10.4,6.4,10.6c-0.5,0.1-1.1-0.2-1.4-0.7l-5.7-10
			c-0.4-0.6-0.1-1.5,0.5-1.8c4.3-2.5,4.6-2.8,5.4-2.5c-0.4,0-0.1-0.1-4.8,2.6C629.9,447,629.7,447.8,630.1,448.5z M636.1,452.2
			c1.8,1.4,5.6,5,7.2,6.8c0.8,2.3,1.2,3.8,1.5,4.8c-0.5-0.9-1.1-2.4-2-4.5C639.1,455.6,636.3,452.4,636.1,452.2z M625.6,444.3
			c-5.2,1.1-6.7,1.4-14.1,2.8c-0.3,2.5-1,8.4-1.8,13c0.3-4.9,1.1-11.3,1.4-13.5C614.4,446,622,444.7,625.6,444.3z M556.7,512
			c0,0.9-0.8,1.6-1.6,1.6c-0.1,0-2.2-0.2-2.3-0.2c-0.9,0-1.7-0.8-1.7-1.7v-3.6c0-0.9,0.7-1.7,1.6-1.7c0.1,0,2.2,0.2,2.3,0.2
			c0.9,0,1.7,0.7,1.7,1.7C556.7,512.6,556.7,511.9,556.7,512z M555.7,475.9c21.8-2.6,53.2-5.9,73.3-7.7
			C608.6,470.7,577.3,474,555.7,475.9z M617.3,474.7l-5.7,0.5c-0.4,0-0.8-0.3-0.7-0.7c0.1-1.3-0.1-2.4,0.7-2.4
			c5.6-0.5,6.4-0.8,6.4,0.1C618,473.7,618.2,474.6,617.3,474.7z M568.6,523c-0.1,0-0.6,0.1-0.6,0.1c-6.9-0.5-7.6-16.5-0.7-17.6
			c0,0,0,0,0.1,0C574.5,505.5,575.7,521.2,568.6,523z M576.7,510.7c-0.4-0.7-0.6-3.7-2.2-6c-1.6-2.2-3.5-2.7-6.2-2.4
			c4.8-1.5,7.6,1.8,8.5,6.8c0.2,0.9,0.1,1.7,1.1,2.2c0.8,0.4,2,0.6,2.7,0.5C579.3,512.2,577.4,512,576.7,510.7z M584.1,511.9
			c3.5-0.1,17.1-0.2,27.9,0.6C602.4,512.7,589.1,512.2,584.1,511.9z M614.5,512.1c0,0.1-0.1,0.8-0.1,0.9
			c-0.5-1.5,0.5-14.4,12.5-13.7c-0.9,0.1-3.3,0.3-5.7,1.5C617.2,503,615.1,507.5,614.5,512.1z M626.7,529.1
			c-5.8,0.6-9.6-9.1-7.4-17.4c3-11.2,13.6-7.9,14.3,4.7C633.9,522.8,630.8,528.6,626.7,529.1z M635.8,509.2
			c-0.1-3.8-0.1-2.9-0.2-10.6c-0.1-2.5-1.4-3.7-3.5-3.9c0,0-12.6,0.6-25.2,1c0.1-1.7,0.6-10.9,1.4-21.4c0,5.9-0.1,12.5-0.4,20.3
			c25.6-1.3,25.3-1.2,26.9,0c1.1,0.8,1.5,2.2,1.6,3.6c0,1-0.2,9.4-0.2,10.5c5.4,0.6,2.4,0.3,5.8,0.7
			C638.8,509.4,641.5,509.5,635.8,509.2z M717.2,519.6c-3,0-64.8,0.9-67,0.9c-0.2-1.9-0.3-2.9-0.4-3.4c0,0,0-0.1,0-0.1
			c0,0,0,0,0-0.1c0,0,0-0.1,0-0.1c0-0.1,0-0.2,0-0.1c0-0.4-0.1-1.2-0.3-2.7c-0.7,4.7-0.6,4.4-0.9,6.4c-8.6-1-7.9-0.9-8.1-0.9
			c-1.8,0-2.3-1.3-2.4-3.1c0-0.6,0-1.2,0-1.8c0.2-1.8,0.7-2.9,2.4-2.9c0,0,8.5,0.8,8.5,0.8c3.8,0,66.3-0.7,68.2-0.8
			c1.2,0,2.5,0.5,2.5,3.9C719.7,519.1,718.5,519.6,717.2,519.6z"/>
		<path class="st0" d="M649.9,517.1C649.9,517.2,649.9,517.1,649.9,517.1L649.9,517.1z"/>
		<path class="st0" d="M649.9,517.1c0,0,0-0.1,0-0.1C649.9,517,649.9,517.1,649.9,517.1z"/>
		<path class="st0" d="M649.8,516.7C649.8,516.8,649.8,516.8,649.8,516.7C649.8,516.8,649.8,516.8,649.8,516.7z"/>
		<path class="st0" d="M649.8,516.7C649.8,516.7,649.8,516.7,649.8,516.7c0,0,0,0,0,0.1C649.8,516.8,649.8,516.8,649.8,516.7
			C649.8,516.8,649.8,516.8,649.8,516.7z"/>
		<path class="st0" d="M568,522.5c5.2-0.9,5.5-12,1.7-15.5c-3.6-3.3-7.7,1.6-7.2,7.9c0,0.3,0,0.4,0.1,0.7
			C563.1,520.5,566.2,522.8,568,522.5z M571.5,512.5c0.8,3.3-0.6,7-2.9,7.1c-2.3,0.1-3.5-3.1-3.5-5.5
			C565,508,570.2,506.8,571.5,512.5z"/>
		<path class="st0" d="M562.5,515.6c0-0.1,0-0.1,0-0.2C562.5,515.5,562.5,515.5,562.5,515.6z"/>
		<path class="st0" d="M571.2,513.6c-0.7-5.2-5.4-5.3-5.7,0.1C568.1,515.1,569.3,512.3,571.2,513.6z"/>
		<path class="st0" d="M634.8,435.8c-23,2.2-51.3,7.7-71.6,13.2C614.8,439,610.7,439.9,634.8,435.8z"/>
		<path class="st0" d="M693.7,436.7c-13.1-3.9-34.2-3.6-47.3-1.9C666.2,434.5,680.8,434.4,693.7,436.7z"/>
	</g>
	<path class="st0" d="M359.9,754.6c0,0,8.4-39.2,51.9-42.2l-12.4,65.8L359.9,754.6z"/>
</g>
<text transform="matrix(1 0 0 1 1137.2207 819.7402)" style="font-family:'MyriadPro-Regular'; font-size:12px;">Lorem ipsum</text>
</svg>
